<svg width="848" height="891" viewBox="0 0 848 891" fill="none" xmlns="http://www.w3.org/2000/svg">
<g clip-path="url(#clip0_119_179)">
<path d="M713.39 622.296C722.789 655.518 680.718 690.932 632.089 690.732C599.79 690.598 567.653 694.262 535.354 694.265C503.054 694.267 469.309 690.151 443.743 676.406C418.178 662.662 403.511 637.38 416.325 616.736C349.332 698.57 307.068 789.075 292.128 882.695C291.563 886.258 292.916 889.84 295.925 892.748C298.935 895.656 303.387 897.684 308.42 898.438C313.452 899.193 318.708 898.62 323.17 896.832C327.631 895.044 330.982 892.167 332.572 888.758L421.941 697.225C408.376 707.866 426.385 724.531 445.642 729.289C464.9 734.047 488.161 734.787 501.036 745.836C549.328 787.278 647.55 794.252 706.861 760.45C766.173 726.649 775.771 658.227 713.39 622.296Z" fill="#A0FFF0"/>
<path d="M504.475 244.876C491.275 245.104 491.309 258.57 504.475 258.822C517.676 258.595 517.642 245.129 504.475 244.876Z" fill="black"/>
<path d="M694.322 242.81C681.121 243.038 681.155 256.504 694.322 256.757C707.523 256.529 707.488 243.063 694.322 242.81Z" fill="black"/>
<path d="M458.497 182.655C473.56 183.658 488.757 182.965 503.504 180.604C488.438 179.811 473.286 180.502 458.497 182.655Z" fill="black"/>
<path d="M642.41 177.492C663.669 179.842 689.563 180.65 708.847 178.364C686.989 175.094 664.43 174.798 642.41 177.492Z" fill="black"/>
<path d="M603.848 315.879C594.048 323.004 585.04 332.698 591.71 342.694C589.762 332.854 598.293 324.428 603.848 315.879Z" fill="black"/>
<path d="M679.668 361.572C674.221 367.512 667.707 372.943 660.284 377.733C637.451 391.894 610.103 399.308 578.052 397.965C562.114 397.485 546.623 393.663 531.172 390.237C544.961 396.23 559.217 402.139 575.326 404.457C613.718 410.397 648.994 399.91 670.396 377.092C675.073 371.652 678.734 365.818 681.29 359.732C680.747 360.344 680.213 360.961 679.668 361.572Z" fill="black"/>
<path d="M801.948 312.927C801.838 312.397 801.724 311.868 801.614 311.339C801.364 314.938 801.009 318.534 800.591 322.125C799.205 333.446 797.393 344.697 795.48 353.651C787.284 400.597 772.782 421.386 726.81 452.341C704.565 467.827 681.885 476.853 649.961 487.556C635.735 492.228 608.036 497.671 589.478 497.21C572.299 497.137 561.666 495.019 541.197 491.523C509.577 484.481 483.309 477.25 454.079 461.8C448.378 458.459 442.896 454.96 437.67 451.26C429.578 445.585 421.945 439.601 414.806 433.337C407.639 426.853 402.054 419.593 398.272 411.846C386.207 385.084 379.309 364.944 379.277 339.975C379.317 327.148 380.632 314.177 388.788 302.453C379.666 312.098 373.986 323.12 372.218 334.603C366.287 356.701 369.831 379.332 376.256 401.181C379.448 411.126 383.299 421.119 390.113 430.19C397.781 439.333 406.963 447.818 417.471 455.471C444.621 477.336 480.816 491.116 519.357 500.926C574.376 514.84 613.808 514.244 660.36 499.943C656.252 513.644 652.814 527.446 650.667 541.365C648.291 560.246 647.363 579.203 647.889 598.153C660.207 568.051 663.746 532.213 663.608 498.932C672.16 496.208 680.964 493.036 690.164 489.404C714.582 480.325 735.824 467.661 754.743 453.687C784.081 433.692 803.25 409.409 805.45 380.492C807.496 357.945 806.323 335.312 801.948 312.927Z" fill="black"/>
<path d="M847.254 179.497C847.616 174.791 848.889 170.115 846.954 165.479C844.323 157.604 842.977 156.602 838.583 148.475C835.477 142.889 831.491 137.434 829.588 131.571C830.997 128.957 834.868 121.255 834.42 114.234C833.136 104.189 830.697 103.001 835.917 93.1397C837.726 86.566 839.257 79.2718 834.79 73.0597C823.4 60.4208 802.299 54.5384 785.762 45.7768C753.617 27.4007 782.738 27.3022 716.768 23.1174C703.997 22.0006 696.885 22.1373 691.415 19.856C691.341 19.8268 691.305 19.8114 691.24 19.7854C683.04 14.8874 673.264 11.4397 662.742 9.73518C648.431 7.9331 633.769 8.31372 619.362 7.02814C616.844 6.84877 614.348 6.54572 611.892 6.12125C609.47 5.86948 607.135 5.30724 605.007 4.46305C596.111 0.0411844 584.513 -0.796223 573.977 0.651306C549.88 6.05603 526.034 19.0346 507.292 22.6693C505.964 22.9487 504.612 23.1741 503.246 23.3443C502.736 23.3697 502.224 23.3731 501.714 23.3546C500.996 23.2594 500.287 23.1323 499.593 22.974C491.607 20.2808 482.794 18.9917 473.927 19.2194C461.884 19.1428 450.511 22.9363 441.592 28.3996C431.128 35.0318 425.152 44.2498 420.181 53.2981C408.21 74.9343 409.794 98.8291 416.841 121.144C417.128 121.992 418.059 125.322 418.482 126.728C413.912 130.577 411.723 133.157 404.404 141.968C391.88 155.679 384.556 170.377 378.374 185.965C377.433 188.03 377.674 190.268 379.045 192.213C379.037 192.35 379.055 192.488 379.097 192.623C379.1 193.507 378.939 194.389 378.619 195.245C376.487 200.747 374.834 206.333 373.668 211.973C372.947 216.361 371.809 221.116 374.336 225.305C380.124 230.848 389.956 224.592 396.254 222.509C390.541 223.745 378.845 228.8 376.948 223.603C376.502 214.053 383.24 205.166 387.441 196.286C388.382 194.426 388.721 192.444 388.434 190.483C388.387 190.02 388.179 189.572 387.828 189.178C391.146 181.443 394.753 177.258 399.826 169.04C403.305 162.153 407.884 157.577 415.233 149.799C417.793 147.143 420.285 144.452 422.821 141.783C413.757 163.149 406.472 184.861 401.002 206.811C394.362 238.546 391.596 270.614 387.413 302.536C402.973 266.229 412.711 228.898 419.685 191.362C422.06 178.719 426.845 155.874 429.369 135.326C432.295 133.254 435.784 131.263 435.648 128.078C435.592 121.343 432.001 114.817 430.891 108.133C429.224 100.408 428.55 92.5937 428.88 84.7847C428.921 81.74 429.43 78.7184 429.903 75.6952C434.648 58.3204 441.512 44.4155 455.713 35.7981C458.848 33.962 462.478 32.5796 466.389 31.7319C470.301 30.8842 474.416 30.588 478.494 30.8609C489.134 31.3351 484.491 31.058 495.869 33.9408C505.199 35.7064 514.343 32.6844 522.709 30.0791C535.765 25.8611 548.23 20.838 560.921 16.1226C573.473 11.8872 573.897 10.6096 585.666 10.9906C585.9 11.0062 586.133 11.029 586.367 11.0472C587.762 11.1814 589.142 11.3797 590.5 11.6408C591.036 11.7402 591.558 11.8734 592.08 12.007C591.012 11.7297 590.364 11.3817 592.08 12.0073C592.245 12.0496 592.417 12.0775 592.58 12.1231C592.409 12.0887 592.241 12.0489 592.081 12.0074L592.206 12.0523C599.153 15.3791 607.23 17.3808 615.633 17.858C634.45 19.615 657.291 19.2069 664.648 22.0668C668.65 23.4181 672.49 24.9892 676.133 26.7652C678.464 28.3791 681.08 29.7798 683.919 30.9336C692.048 33.9399 701.547 33.4207 710.417 34.3437C727.884 35.782 733.806 35.8515 750.426 38.3408C751.138 38.4773 751.836 38.6492 752.53 38.8249C752.738 38.8982 752.942 38.9751 753.144 39.0555C754.404 39.939 754.248 40.3852 758.064 43.5507C769.501 53.1608 785.076 59.6601 799.706 66.6278C807.528 70.1837 809.148 71.2557 817.569 77.3302C817.778 77.5462 817.924 77.6866 818.045 77.7956C818.434 78.2164 818.785 78.6535 819.096 79.1045C819.214 79.3728 819.358 79.721 819.473 80.0779C819.445 86.7107 819.737 87.1648 818.249 91.0659C813.839 97.9698 815.208 105.452 816.336 112.715C816.436 113.823 816.4 114.934 816.228 116.037C815.628 118.842 814.79 121.619 813.718 124.354C811.945 127.689 810.565 131.174 811.99 134.714C816.663 145.829 828.204 157.896 832.362 170.038C832.509 170.474 832.656 170.91 832.788 171.349C832.867 172.345 832.736 173.342 832.751 174.338C832.848 177.64 833.214 180.935 833.848 184.208C835 191.142 836.871 198.001 838.797 204.848C839.484 208.67 839.378 212.542 838.484 216.343C835.242 220.902 827.069 221.916 820.758 223.48C816.731 224.358 812.72 225.278 808.696 226.164C810.527 225.995 812.359 225.833 814.193 225.678C825.787 224.549 843.407 224.815 845.865 214.636C847.592 210.018 848.183 205.229 847.611 200.473C847.081 193.489 846.904 186.488 847.254 179.497Z" fill="black"/>
<path d="M795.569 138.426C797.372 138.383 799.175 138.336 800.974 138.299C806.785 138.199 801.121 138.028 798.339 137.723C797.369 137.632 796.399 137.543 795.427 137.456C795.22 136.058 795.02 134.66 794.811 133.263C794.569 131.78 794.322 130.297 794.069 128.814C793.617 131.611 793.24 134.414 792.831 137.215C787.815 136.801 782.841 136.169 777.938 135.322C774.128 134.444 770.43 133.34 766.569 132.561C758.402 130.698 749.685 130.532 741.544 128.591C728.083 125.694 719.5 121.944 704.561 118.681C672.724 112.501 639.292 108.231 606.2 110.959C594.653 112.288 583.716 115.42 572.223 116.957C561.345 118.935 542.089 117.703 525.741 120.86C492.821 127.488 477.653 131.297 443.405 124.016C468.414 132.255 485.663 133.873 512.894 130.416C526.747 128.803 533.27 127.48 547.898 127.824C559.217 128.497 570.615 128.129 581.796 126.73C590.613 125.724 599.185 123.852 608.004 122.871C621.532 122.241 635.104 122.215 648.637 122.792C670.61 123.77 683.118 125.286 705.898 128.333C723.299 131.733 740.516 136.119 758.842 135.982C764.657 136.243 770.46 137.384 777.744 138.261C782.699 138.556 787.676 138.629 792.645 138.481C791.635 145.516 790.707 152.557 789.952 159.607C786.315 191.459 787.65 223.446 791.396 255.259C793.306 275.489 795.351 295.717 798.509 315.873C802.133 290.764 805.66 265.575 805.456 240.314C804.921 206.267 800.57 172.286 795.569 138.426Z" fill="black"/>
<path d="M562.755 450.277C585.251 449.851 607.513 446.972 628.729 441.745C606.232 442.171 583.971 445.05 562.755 450.277Z" fill="black"/>
<path d="M681.732 599.494C674.589 597.023 666.857 595.484 658.918 594.951C661.848 595.579 665.882 596.763 667.98 597.354C689.382 603.845 699.102 617.429 685.86 630.079C670.142 643.688 627.343 648.584 605.453 650.12C581.315 651.204 557.099 651.153 532.97 649.967C510.265 648.908 497.955 648.451 477.634 645.134C464.09 642.649 457.322 641.463 446.825 637.487C443.644 636.478 440.886 634.919 438.815 632.958C436.743 630.998 435.426 628.7 434.99 626.285C434.654 624.21 434.949 622.109 435.854 620.119C436.759 618.128 438.255 616.292 440.245 614.73C443.525 615.128 446.791 615.549 450.033 615.898C447.252 615.127 444.539 614.397 441.874 613.722C451.663 609.835 463.06 611.237 473.821 612.079C473.791 612.333 473.766 612.587 473.737 612.841C473.853 612.594 473.97 612.347 474.088 612.099C475.184 612.184 476.275 612.265 477.355 612.33C476.337 612.132 475.307 611.924 474.271 611.713C474.459 611.316 474.646 610.92 474.833 610.523C491.385 576.678 499.177 541.056 497.847 505.315C488.93 533.388 479.611 561.488 476.294 590.213C475.373 597.346 474.683 604.492 473.869 611.631C461.989 609.21 449.027 606.405 437.461 610.632C436.542 611.069 435.669 611.55 434.846 612.071C419.549 608.787 405.397 608.113 388.67 614.089C367.711 620.747 352.749 633.337 341.806 647.113C326.749 665.265 316.682 685.127 308.979 705.329C296.173 738.783 285.563 772.667 275.843 806.616C271.768 823.083 268.966 844.519 266.232 856.557C261.997 878.169 256.387 899.628 251.852 921.206C251.56 922.648 251.283 924.091 251 925.533C251.958 923.388 252.947 921.249 253.937 919.111C266.131 894.162 277.49 868.987 285.289 843.171C294.839 808.149 305.297 773.257 316.664 738.494C326.857 707.551 338.603 677.415 356.225 652.458C364.636 640.766 370.108 633.35 382.839 625.643C391.34 620.495 401.088 615.947 412.182 614.132C418.839 613.21 425.678 613.123 432.379 613.875C428.228 617.516 425.962 622.026 425.949 626.675C425.935 631.325 428.174 635.841 432.304 639.494C447.58 651.096 476.289 656.413 497.979 659.3C523.867 662.324 550.206 662.812 576.407 662.985C599.19 663.141 622.122 661.585 643.832 656.565C660.625 652.888 677.598 647.76 690.253 639.02C707.807 626.454 704.393 607.713 681.732 599.494Z" fill="black"/>
<path d="M760.676 623.759C755.274 618.536 749.36 612.986 740.813 610.163C727.283 605.945 712.254 604.63 697.646 606.385C712.007 606.386 726.049 609.336 738.013 614.867C743.404 617.793 746.782 622.15 750.09 626.231C766.276 646.219 756.302 681.604 752.895 707.21C748.89 733.407 743.862 759.551 741.566 785.857C739.138 816.472 739.318 847.155 738.85 877.807C738.839 879.561 738.828 881.317 738.805 883.071C739.094 882.082 739.393 881.095 739.685 880.107C749.704 846.875 755.579 813.149 761.26 779.451C765.505 755.057 768.798 730.589 772.985 706.189C776.611 680.866 782.021 645.741 760.676 623.759Z" fill="black"/>
<path d="M425.082 778.962C393.977 825.233 369.411 874.067 361.233 925.055C378.467 890.922 399.183 857.56 411.827 822.389C417.551 807.255 422.06 791.919 426.858 776.634C427.532 774.891 425.516 778.452 425.082 778.962Z" fill="black"/>
<path d="M663.29 775.864C650.506 800.333 641.254 825.629 635.67 851.375C630.467 877.74 629.778 904.434 631.047 931C644.388 887.417 654.253 849.547 659.905 807.375C661.485 796.455 662.482 785.495 664.291 774.592C664.705 772.888 663.688 775.307 663.29 775.864Z" fill="black"/>
<path d="M648.265 729.752C640.56 740.709 627.554 750.461 614.649 753.773C602.385 756.851 592.087 756.092 589.45 754.041C590.635 738.582 594.531 718.562 595.185 701.51C589.964 715.882 584.822 730.273 580.274 744.756C579.346 748.859 576.773 753.325 579.027 757.384C584.781 765.264 600.309 765.357 611.068 763.258C642.408 757.164 653.57 732.877 660.578 713.156C660.892 712.236 661.182 711.311 661.46 710.387C657.466 716.97 653.084 723.442 648.265 729.752Z" fill="black"/>
<g clip-path="url(#clip1_119_179)">
<path d="M308.776 488.94C304.351 485.904 300.602 481.984 297.764 477.428C294.926 472.871 293.06 467.777 292.285 462.465C291.509 457.153 291.841 451.738 293.258 446.562C294.675 441.385 297.148 436.557 300.52 432.384C309.074 421.751 314.342 408.852 315.678 395.266C323.881 428.129 320.407 463.783 308.776 488.94Z" fill="#A0FFF0"/>
<path d="M339.46 410.886C336.463 405.395 333.11 399.998 328.857 395.386C325.438 392.001 321.433 389.062 316.985 387.195C316.685 387.081 316.378 386.983 316.072 386.889C316.892 387.331 317.674 387.841 318.41 388.412C323.345 392.358 326.941 396.418 329.79 401.755C334.794 410.883 337.684 417.717 339.805 428.11C340.005 429.012 340.191 429.909 340.362 430.801C328.592 437.08 319.877 447.363 313.83 459.126C322.218 449.53 330.787 440.013 340.351 431.566C340.394 431.529 340.437 431.491 340.48 431.454C342.976 444.9 342.269 457.27 338.181 470.889C334.416 483.44 326.351 496.608 315.549 496.324C314.278 492.052 313.364 487.682 312.815 483.259C311.689 475.913 311.249 463.546 312.748 453.904C313.668 446.614 314.749 441.626 316.647 432.341C318.497 423.214 320.188 414.05 322.399 405.001C323.223 402.223 321.197 407.394 320.836 408.147C316.933 417.607 313.855 427.383 311.03 437.213C309.327 442.937 308.107 448.794 307.384 454.722C305.226 453.607 302.998 452.632 300.715 451.803C296.315 450.487 291.724 449.829 287.159 449.421C286.942 449.406 286.724 449.393 286.507 449.38C288.93 450.358 291.346 451.358 293.816 452.214C298.239 453.669 302.699 455.057 307.219 456.188C305.799 469.26 306.691 482.48 309.855 495.243C305.224 493.665 300.518 490.558 297.172 487.26C290.449 480.205 285.557 466.465 285.214 456.474C284.908 448.562 285.833 443.886 287.427 436.901C290.094 425.797 293.457 418.204 298.614 408.699C301.545 403.456 304.651 398.282 308.295 393.5C310.212 391.08 314.037 386.959 316.778 384.06C313.332 386.695 309.81 389.26 306.661 392.255C303.055 395.748 299.93 399.703 296.926 403.716C290.217 412.786 285.082 423.047 282.6 434.089C279.611 445.55 278.541 457.823 282.055 469.295C286.591 484.817 293.898 495.731 309.899 500.797C310.537 500.962 311.166 501.096 311.786 501.206C317.497 516.084 327.417 529.488 341.884 536.761C331.872 528.974 325.317 519.988 320.196 508.509C319.13 506.166 318.154 503.84 317.274 501.469C334.227 500 343.014 476.889 345.616 461.777C347.206 453.115 347.737 444.246 346.505 435.501C345.485 427.002 343.351 418.543 339.46 410.886Z" fill="black"/>
<path d="M278.883 410.109C280.73 409.648 281.853 407.776 281.391 405.929C280.93 404.081 279.059 402.957 277.213 403.418C275.367 403.879 274.244 405.75 274.705 407.598C275.166 409.445 277.037 410.57 278.883 410.109Z" fill="black"/>
<path d="M369.048 434.592C370.689 434.182 371.687 432.519 371.277 430.876C370.867 429.234 369.204 428.235 367.563 428.645C365.922 429.054 364.924 430.718 365.334 432.36C365.744 434.002 367.407 435.002 369.048 434.592Z" fill="black"/>
<path d="M346.19 509.008C347.831 508.598 348.829 506.934 348.419 505.292C348.009 503.65 346.346 502.65 344.705 503.06C343.064 503.47 342.066 505.133 342.475 506.776C342.885 508.418 344.548 509.417 346.19 509.008Z" fill="black"/>
</g>
</g>
<g clip-path="url(#clip2_119_179)">
<path d="M100.181 432.602C95.5463 426.487 92.2262 419.479 90.4293 412.019C88.6324 404.558 88.3976 396.805 89.7397 389.249C91.0818 381.692 93.9718 374.495 98.2279 368.11C102.484 361.725 108.014 356.291 114.471 352.147C130.869 341.577 143.83 326.45 151.766 308.62C148.084 356.905 127.3 403.712 100.181 432.602Z" fill="#A0FFF0"/>
<path d="M176.992 340.531C175.4 331.731 173.284 322.897 169.592 314.723C166.479 308.59 162.37 302.797 157.176 298.259C156.821 297.969 156.449 297.698 156.076 297.432C156.989 298.402 157.82 299.446 158.562 300.553C163.478 308.13 166.527 315.26 167.988 323.785C170.663 338.424 171.503 348.998 169.697 364.055C169.561 365.37 169.409 366.67 169.24 367.958C150.441 371.171 133.982 381.196 120.476 394.429C136.182 385.19 152.097 376.141 168.88 368.991C168.955 368.959 169.03 368.928 169.105 368.896C166.431 388.264 159.897 404.729 148.213 421.364C137.448 436.696 120.57 450.926 106.043 445.672C106.244 439.304 106.973 432.963 108.222 426.715C110.005 416.24 114.982 399.263 121.362 386.856C125.896 377.38 129.61 371.1 136.37 359.358C142.994 347.809 149.419 336.138 156.496 324.857C158.866 321.459 153.787 327.562 152.959 328.421C143.399 339.497 134.816 351.374 126.553 363.437C121.663 370.435 117.369 377.832 113.715 385.549C111.289 383.064 108.706 380.737 105.982 378.583C100.606 374.814 94.6744 371.853 88.6639 369.24C88.376 369.123 88.0865 369.008 87.7988 368.892C90.6449 371.311 93.4726 373.756 96.4367 376.031C101.783 379.998 107.208 383.891 112.831 387.464C105.013 404.558 100.265 422.897 98.8051 441.64C93.2335 437.411 88.2483 431.075 85.1955 425.092C79.2535 412.49 78.8093 391.644 82.8461 377.933C85.9975 367.062 89.3597 361.133 94.6708 352.376C103.294 338.512 111.279 329.727 122.56 319.154C128.899 313.362 135.446 307.742 142.544 302.896C146.235 300.478 153.284 296.61 158.309 293.913C152.445 295.935 146.511 297.827 140.889 300.47C134.422 303.585 128.4 307.542 122.515 311.633C109.325 320.914 97.7336 332.521 89.3888 346.384C80.1676 360.587 73.1854 376.757 72.7827 393.904C71.9406 417.009 76.9346 435.109 96.3605 449.194C97.1525 449.706 97.9446 450.171 98.7364 450.599C99.7792 473.359 107.198 496.016 123.548 512.405C113.473 497.327 108.631 482.181 106.855 464.299C106.465 460.64 106.19 457.044 106.064 453.431C129.728 459.078 152.065 431.682 162.407 412.352C168.469 401.316 173.185 389.523 175.455 377.103C177.902 365.112 178.82 352.674 176.992 340.531Z" fill="black"/>
<path d="M95.1547 312.174C97.8675 312.381 100.234 310.348 100.441 307.633C100.648 304.919 98.6171 302.55 95.9042 302.343C93.1914 302.137 90.8244 304.17 90.6174 306.884C90.4104 309.599 92.4418 311.967 95.1547 312.174Z" fill="black"/>
<path d="M206.451 386.03C208.862 386.214 210.966 384.407 211.15 381.994C211.334 379.581 209.528 377.475 207.117 377.292C204.705 377.108 202.601 378.915 202.417 381.328C202.233 383.741 204.039 385.846 206.451 386.03Z" fill="black"/>
<path d="M141.898 476.691C144.309 476.875 146.413 475.068 146.597 472.655C146.781 470.241 144.975 468.136 142.564 467.952C140.153 467.769 138.049 469.576 137.865 471.989C137.681 474.402 139.486 476.507 141.898 476.691Z" fill="black"/>
</g>
<g clip-path="url(#clip3_119_179)">
<path d="M176.788 681.536C178.032 687.444 178.135 693.758 177.09 700.081C176.046 706.404 173.877 712.599 170.72 718.277C167.563 723.955 163.485 728.992 158.745 733.072C154.004 737.153 148.702 740.188 143.172 741.987C129.114 746.593 115.971 755.599 105.355 767.901C122.28 730.497 150.117 698.192 176.788 681.536Z" fill="#A0FFF0"/>
<path d="M98.1744 736.828C96.5921 744.165 95.3479 751.649 95.3483 758.972C95.5759 764.545 96.5673 770.077 98.6552 774.865C98.8041 775.177 98.9696 775.477 99.138 775.774C98.8225 774.796 98.5833 773.778 98.4229 772.73C97.431 765.599 97.5446 759.25 99.131 752.162C101.745 739.951 104.358 731.381 110.073 719.869C110.557 718.858 111.048 717.863 111.546 716.882C124.993 718.654 138.928 714.494 151.865 707.113C138.665 710.825 125.384 714.337 112.095 716.146C112.036 716.154 111.977 716.162 111.917 716.169C119.501 701.441 128.778 689.899 141.524 679.405C153.27 669.732 168.744 662.337 176.815 669.835C174.772 674.834 172.386 679.69 169.683 684.352C165.358 692.241 156.962 704.546 149.005 712.909C143.153 719.374 138.803 723.495 130.793 731.244C122.932 738.872 115.166 746.641 107.083 753.952C104.49 756.099 109.693 752.432 110.501 751.941C120.17 745.363 129.43 737.926 138.535 730.268C143.881 725.848 148.95 720.975 153.691 715.7C154.556 718.227 155.573 720.663 156.736 722.995C159.175 727.216 162.226 730.924 165.434 734.374C165.59 734.533 165.748 734.691 165.904 734.849C164.74 732.279 163.595 729.692 162.309 727.209C159.949 722.839 157.514 718.509 154.852 714.387C165.17 702.641 173.822 689.204 180.412 674.692C182.843 679.322 184.253 685.487 184.486 690.927C184.652 702.275 178.696 718.89 171.904 728.824C166.551 736.712 162.541 740.637 156.388 746.354C146.505 755.355 138.568 760.481 127.907 766.265C121.96 769.396 115.928 772.345 109.762 774.553C106.585 775.621 100.745 777.066 96.5995 778.048C101.1 777.794 105.607 777.658 110.133 776.855C115.362 775.873 120.546 774.122 125.681 772.233C137.223 767.91 148.4 761.378 158.099 752.313C168.481 743.18 177.966 731.975 183.376 718.484C190.863 700.375 192.975 684.89 184.3 669.27C183.928 668.682 183.542 668.132 183.144 667.611C189.277 649.342 191.146 629.689 185.203 612.952C187.372 627.21 186.045 640.32 181.861 654.893C181.023 657.882 180.128 660.793 179.128 663.685C165.108 653.775 142.061 670.347 129.396 683.284C122.062 690.633 115.394 698.892 110.162 708.209C104.941 717.146 100.601 726.789 98.1744 736.828Z" fill="black"/>
<path d="M144.011 778.089C142.272 777.302 140.09 778.369 139.139 780.472C138.187 782.575 138.826 784.917 140.565 785.704C142.304 786.491 144.486 785.425 145.437 783.322C146.389 781.219 145.75 778.876 144.011 778.089Z" fill="black"/>
<path d="M92.258 694.018C90.7119 693.319 88.7729 694.267 87.9271 696.136C87.0813 698.005 87.649 700.088 89.1951 700.787C90.7411 701.487 92.6801 700.539 93.5259 698.669C94.3717 696.8 93.804 694.718 92.258 694.018Z" fill="black"/>
<path d="M162.309 637.028C160.763 636.328 158.824 637.276 157.978 639.146C157.133 641.015 157.7 643.097 159.246 643.797C160.792 644.497 162.731 643.548 163.577 641.679C164.423 639.81 163.855 637.727 162.309 637.028Z" fill="black"/>
</g>
<g clip-path="url(#clip4_119_179)">
<path d="M126.949 88.443C134.934 86.4532 143.246 86.1368 151.362 87.5136C159.478 88.8904 167.222 91.9307 174.107 96.4433C180.992 100.956 186.87 106.843 191.37 113.735C195.87 120.627 198.896 128.374 200.257 136.489C203.759 157.121 213.206 176.287 227.44 191.638C181.379 167.629 143.992 127.379 126.949 88.443Z" fill="#A0FFF0"/>
<path d="M185.326 203.046C194.676 205.191 204.28 206.832 213.899 206.641C221.26 206.16 228.707 204.553 235.374 201.346C235.81 201.118 236.234 200.866 236.654 200.61C235.312 201.101 233.932 201.48 232.527 201.744C222.98 203.394 214.663 203.392 205.64 201.235C190.074 197.695 179.292 194.06 165.207 185.924C163.967 185.236 162.749 184.537 161.551 183.827C166.316 163.932 163.376 143.471 156.027 124.567C158.509 143.954 160.716 163.467 160.684 183.036C160.683 183.123 160.683 183.21 160.682 183.297C142.711 172.487 129.232 159.094 117.759 140.552C107.183 123.465 100.274 100.816 111.586 88.7073C117.781 91.5933 123.727 94.9883 129.361 98.8573C138.938 105.036 153.579 117.109 163.121 128.637C170.551 137.107 175.177 143.42 183.904 155.042C192.497 166.448 201.294 177.709 209.432 189.45C211.782 193.221 207.908 185.637 207.411 184.458C200.523 170.356 192.433 156.88 184.025 143.64C179.187 135.864 173.705 128.507 167.637 121.648C171.112 120.305 174.497 118.74 177.77 116.962C183.756 113.251 189.179 108.651 194.292 103.827C194.53 103.593 194.765 103.356 195.001 103.121C191.414 104.906 187.81 106.663 184.315 108.626C178.147 112.224 172.018 115.93 166.122 119.968C152.564 105.043 136.483 92.6212 118.617 83.2719C125.139 79.5624 133.491 77.3204 140.679 76.8348C155.614 76.294 176.358 84.6536 188.175 94.421C197.566 102.117 201.993 107.935 208.388 116.868C218.419 131.222 223.713 142.805 229.378 158.391C232.414 167.087 235.194 175.915 236.977 184.96C237.804 189.621 238.643 198.204 239.182 204.298C239.663 197.661 240.301 191.012 240.067 184.351C239.725 176.659 238.365 169.051 236.814 161.521C233.228 144.597 226.674 128.268 216.525 114.188C206.411 99.1003 193.412 85.3907 176.673 77.7567C154.244 67.1752 134.287 64.4609 112.199 77.6729C111.36 78.2379 110.567 78.8226 109.81 79.4228C86.9265 70.8457 61.4524 68.5988 38.3909 77.8061C57.5116 74.2343 74.4914 75.8513 92.8742 81.6474C96.6474 82.8071 100.309 84.053 103.926 85.454C88.3695 106.406 105.959 139.996 120.656 158.353C128.98 168.988 138.619 178.616 149.909 186.096C160.701 193.57 172.58 199.725 185.326 203.046Z" fill="black"/>
<path d="M247.828 134.312C246.479 136.9 247.484 140.092 250.074 141.442C252.664 142.791 255.857 141.788 257.206 139.2C258.554 136.612 257.549 133.42 254.959 132.07C252.369 130.72 249.176 131.724 247.828 134.312Z" fill="black"/>
<path d="M128.025 212.894C126.826 215.194 127.72 218.032 130.022 219.232C132.324 220.431 135.162 219.539 136.361 217.239C137.56 214.939 136.666 212.101 134.364 210.901C132.062 209.701 129.224 210.594 128.025 212.894Z" fill="black"/>
<path d="M65.8651 110.974C64.6661 113.274 65.5602 116.112 67.8621 117.312C70.164 118.511 73.0021 117.619 74.2011 115.319C75.4002 113.019 74.5061 110.181 72.2041 108.981C69.9022 107.781 67.0641 108.674 65.8651 110.974Z" fill="black"/>
</g>
<defs>
<clipPath id="clip0_119_179">
<rect width="597" height="931" fill="white" transform="translate(251)"/>
</clipPath>
<clipPath id="clip1_119_179">
<rect width="95.9355" height="154.235" fill="white" transform="translate(264 397.235) rotate(-14.0162)"/>
</clipPath>
<clipPath id="clip2_119_179">
<rect width="137.155" height="220.502" fill="white" transform="translate(80.764 288) rotate(4.36021)"/>
</clipPath>
<clipPath id="clip3_119_179">
<rect width="96.2389" height="186.942" fill="white" transform="translate(146.317 800.545) rotate(-155.654)"/>
</clipPath>
<clipPath id="clip4_119_179">
<rect width="147.119" height="236.521" fill="white" transform="translate(277.74 130.323) rotate(117.53)"/>
</clipPath>
</defs>
</svg>
