<svg width="312" height="387" viewBox="0 0 312 387" fill="none" xmlns="http://www.w3.org/2000/svg">
<g clip-path="url(#clip0_119_180)">
<path d="M300.973 270.04C304.327 284.457 289.316 299.825 271.966 299.737C260.443 299.68 248.977 301.269 237.453 301.271C225.929 301.272 213.889 299.485 204.768 293.521C195.646 287.557 190.413 276.586 194.985 267.628C171.083 303.139 156.004 342.413 150.674 383.038C150.472 384.584 150.955 386.139 152.029 387.401C153.102 388.663 154.691 389.543 156.486 389.87C158.282 390.198 160.157 389.949 161.749 389.173C163.341 388.397 164.536 387.149 165.104 385.669L196.989 302.555C192.149 307.173 198.574 314.405 205.445 316.469C212.316 318.534 220.615 318.855 225.209 323.65C242.439 341.633 277.483 344.659 298.644 329.991C319.805 315.323 323.23 285.632 300.973 270.04Z" fill="#A0FFF0"/>
<path d="M226.436 106.262C221.726 106.361 221.738 112.204 226.436 112.314C231.146 112.215 231.133 106.372 226.436 106.262Z" fill="black"/>
<path d="M294.17 105.366C289.46 105.464 289.473 111.308 294.17 111.418C298.88 111.319 298.868 105.475 294.17 105.366Z" fill="black"/>
<path d="M210.031 79.2619C215.406 79.697 220.828 79.3964 226.09 78.3715C220.714 78.0275 215.308 78.3273 210.031 79.2619Z" fill="black"/>
<path d="M275.649 77.0211C283.233 78.0409 292.472 78.3917 299.352 77.3995C291.554 75.9808 283.505 75.8523 275.649 77.0211Z" fill="black"/>
<path d="M261.891 137.073C258.394 140.165 255.18 144.372 257.56 148.709C256.865 144.439 259.909 140.783 261.891 137.073Z" fill="black"/>
<path d="M288.942 156.901C286.998 159.479 284.674 161.836 282.026 163.914C273.879 170.059 264.122 173.276 252.687 172.694C247 172.486 241.474 170.827 235.961 169.34C240.881 171.941 245.967 174.505 251.714 175.511C265.412 178.088 277.998 173.538 285.634 163.636C287.303 161.275 288.609 158.744 289.52 156.103C289.327 156.368 289.136 156.636 288.942 156.901Z" fill="black"/>
<path d="M332.569 135.792C332.53 135.562 332.489 135.332 332.45 135.103C332.361 136.665 332.235 138.225 332.085 139.784C331.591 144.696 330.944 149.578 330.262 153.464C327.338 173.836 322.164 182.857 305.761 196.29C297.825 203.01 289.733 206.927 278.343 211.571C273.267 213.598 263.385 215.961 256.763 215.76C250.634 215.729 246.841 214.81 239.538 213.293C228.256 210.237 218.884 207.099 208.455 200.395C206.421 198.945 204.466 197.426 202.601 195.821C199.714 193.358 196.99 190.761 194.443 188.043C191.886 185.23 189.894 182.079 188.544 178.717C184.24 167.104 181.779 158.365 181.767 147.529C181.782 141.963 182.251 136.335 185.16 131.247C181.906 135.433 179.879 140.216 179.249 145.198C177.133 154.788 178.397 164.608 180.689 174.089C181.828 178.405 183.202 182.741 185.633 186.678C188.369 190.645 191.645 194.327 195.394 197.648C205.081 207.136 217.995 213.116 231.746 217.373C251.375 223.411 265.444 223.152 282.053 216.946C280.587 222.892 279.361 228.881 278.595 234.921C277.747 243.114 277.416 251.34 277.604 259.564C281.999 246.501 283.261 230.95 283.212 216.508C286.263 215.325 289.404 213.949 292.687 212.373C301.399 208.433 308.978 202.938 315.727 196.874C326.195 188.197 333.034 177.66 333.819 165.111C334.549 155.327 334.13 145.506 332.569 135.792Z" fill="black"/>
<path d="M348.734 77.8915C348.863 75.8492 349.317 73.82 348.627 71.8082C347.688 68.3908 347.208 67.956 345.64 64.4297C344.532 62.0055 343.11 59.6385 342.431 57.0941C342.934 55.9598 344.315 52.6178 344.155 49.5708C343.697 45.2121 342.826 44.6964 344.689 40.4172C345.334 37.5646 345.881 34.3993 344.287 31.7037C340.223 26.2191 332.695 23.6665 326.794 19.8644C315.326 11.8903 325.715 11.8475 302.178 10.0316C297.622 9.54699 295.085 9.60628 293.133 8.61633C293.106 8.60367 293.094 8.59698 293.071 8.58571C290.145 6.46026 286.657 4.96416 282.903 4.22449C277.797 3.4425 272.566 3.60766 267.426 3.0498C266.527 2.97196 265.637 2.84045 264.76 2.65626C263.896 2.547 263.063 2.30303 262.304 1.93669C259.13 0.0178624 254.992 -0.345524 251.233 0.28262C242.636 2.62796 234.128 8.25992 227.441 9.83716C226.967 9.9584 226.485 10.0562 225.997 10.1301C225.815 10.1411 225.633 10.1426 225.451 10.1345C225.194 10.0932 224.942 10.0381 224.694 9.96939C221.845 8.80069 218.7 8.24128 215.537 8.34011C211.24 8.30687 207.182 9.95301 204 12.3238C200.267 15.2018 198.134 19.2018 196.361 23.1283C192.09 32.5171 192.655 42.8861 195.169 52.5692C195.272 52.9374 195.604 54.3823 195.755 54.9927C194.124 56.6629 193.343 57.7823 190.732 61.606C186.264 67.5556 183.651 73.9339 181.445 80.6982C181.109 81.5943 181.195 82.5655 181.684 83.4093C181.682 83.4689 181.688 83.5287 181.703 83.587C181.704 83.971 181.647 84.3535 181.532 84.725C180.772 87.1124 180.182 89.5364 179.766 91.9839C179.509 93.8881 179.103 95.9515 180.004 97.7693C182.069 100.175 185.577 97.46 187.824 96.5561C185.786 97.0922 181.613 99.2859 180.936 97.0308C180.777 92.8865 183.181 89.0299 184.68 85.1768C185.016 84.3697 185.136 83.5097 185.034 82.6584C185.017 82.4576 184.943 82.2632 184.818 82.0921C186.002 78.7359 187.289 76.9196 189.099 73.3536C190.34 70.3648 191.974 68.3794 194.596 65.004C195.509 63.8515 196.398 62.6839 197.303 61.5258C194.069 70.7972 191.47 80.2189 189.518 89.7441C187.149 103.515 186.162 117.431 184.67 131.283C190.221 115.528 193.696 99.3286 196.184 83.0399C197.032 77.5538 198.739 67.6403 199.639 58.7234C200.683 57.8246 201.928 56.9604 201.879 55.5785C201.86 52.6558 200.578 49.8241 200.182 46.9236C199.587 43.5711 199.347 40.1803 199.465 36.7916C199.479 35.4704 199.661 34.1592 199.83 32.8473C201.523 25.3077 203.971 19.2737 209.038 15.5343C210.157 14.7375 211.452 14.1377 212.847 13.7698C214.243 13.4019 215.711 13.2734 217.166 13.3918C220.962 13.5976 219.306 13.4774 223.365 14.7283C226.694 15.4945 229.956 14.1831 232.941 13.0526C237.6 11.2222 242.047 9.04247 246.575 6.99625C251.053 5.15837 251.205 4.60392 255.403 4.76927C255.487 4.77605 255.57 4.78593 255.654 4.79382C256.151 4.85205 256.644 4.93811 257.128 5.05143C257.319 5.09454 257.506 5.15236 257.692 5.21035C257.311 5.08998 257.08 4.939 257.692 5.21046C257.751 5.22883 257.812 5.24093 257.87 5.26069C257.809 5.24578 257.749 5.22852 257.692 5.2105L257.737 5.22998C260.215 6.67362 263.097 7.54224 266.095 7.74935C272.809 8.51176 280.958 8.33469 283.583 9.57569C285.011 10.1621 286.381 10.8438 287.681 11.6145C288.512 12.3149 289.446 12.9227 290.459 13.4234C293.359 14.728 296.748 14.5026 299.913 14.9032C306.145 15.5273 308.257 15.5575 314.187 16.6377C314.441 16.6969 314.69 16.7715 314.938 16.8477C315.012 16.8795 315.085 16.9129 315.157 16.9478C315.606 17.3312 315.551 17.5248 316.912 18.8985C320.993 23.0687 326.55 25.889 331.769 28.9126C334.56 30.4557 335.138 30.9208 338.143 33.5568C338.217 33.6506 338.269 33.7115 338.312 33.7588C338.451 33.9414 338.576 34.1311 338.688 34.3267C338.73 34.4432 338.781 34.5943 338.822 34.7492C338.812 37.6274 338.916 37.8244 338.385 39.5173C336.812 42.5132 337.3 45.7599 337.703 48.9118C337.738 49.3924 337.725 49.8747 337.664 50.3534C337.45 51.5704 337.151 52.7755 336.769 53.9625C336.136 55.4097 335.644 56.9218 336.152 58.4582C337.819 63.2812 341.937 68.5178 343.421 73.7865C343.473 73.9757 343.526 74.1651 343.572 74.3555C343.601 74.7875 343.554 75.2205 343.559 75.6527C343.594 77.0854 343.725 78.5153 343.951 79.9354C344.362 82.9446 345.029 85.9211 345.717 88.8919C345.962 90.5507 345.924 92.2307 345.605 93.8804C344.448 95.8587 341.532 96.2986 339.28 96.9773C337.844 97.3585 336.412 97.7576 334.977 98.1419C335.63 98.0689 336.284 97.9986 336.938 97.9311C341.075 97.4414 347.361 97.5568 348.238 93.1394C348.855 91.1354 349.065 89.0574 348.861 86.9937C348.672 83.9631 348.609 80.9248 348.734 77.8915Z" fill="black"/>
<path d="M330.294 60.0689C330.937 60.0502 331.58 60.0298 332.222 60.0138C334.295 59.9705 332.274 59.8963 331.282 59.7637C330.936 59.7242 330.59 59.6856 330.243 59.6478C330.169 59.0414 330.097 58.4346 330.023 57.8285C329.937 57.1847 329.849 56.5411 329.758 55.8977C329.597 57.1116 329.463 58.3279 329.317 59.5432C327.527 59.3639 325.752 59.0896 324.003 58.7221C322.644 58.341 321.324 57.8619 319.947 57.5238C317.033 56.7154 313.923 56.6435 311.018 55.801C306.215 54.5437 303.153 52.9165 297.823 51.5005C286.464 48.8189 274.537 46.9659 262.73 48.1499C258.61 48.7267 254.708 50.0856 250.607 50.7526C246.726 51.6107 239.856 51.0764 234.023 52.4462C222.278 55.3224 216.866 56.9751 204.647 53.8155C213.57 57.3909 219.724 58.0931 229.44 56.5928C234.382 55.8932 236.709 55.3187 241.928 55.4683C245.967 55.7601 250.033 55.6004 254.023 54.9934C257.169 54.5568 260.227 53.7446 263.373 53.3187C268.2 53.0454 273.042 53.034 277.871 53.2848C285.71 53.7089 290.173 54.3666 298.3 55.6892C304.509 57.1646 310.651 59.0676 317.19 59.0082C319.265 59.1217 321.335 59.6167 323.934 59.9974C325.702 60.1252 327.478 60.157 329.25 60.0928C328.89 63.1456 328.559 66.2009 328.289 69.2603C326.992 83.082 327.468 96.9627 328.805 110.768C329.486 119.546 330.216 128.324 331.342 137.071C332.635 126.175 333.894 115.244 333.821 104.283C333.63 89.5079 332.078 74.7621 330.294 60.0689Z" fill="black"/>
<path d="M247.229 195.394C255.256 195.209 263.198 193.96 270.768 191.692C262.741 191.877 254.799 193.126 247.229 195.394Z" fill="black"/>
<path d="M289.678 260.146C287.13 259.074 284.371 258.405 281.539 258.174C282.584 258.447 284.023 258.961 284.772 259.217C292.408 262.034 295.875 267.928 291.151 273.418C285.543 279.323 270.273 281.448 262.463 282.115C253.851 282.585 245.211 282.562 236.603 282.048C228.502 281.588 224.11 281.39 216.859 279.951C212.027 278.873 209.612 278.358 205.867 276.632C204.732 276.195 203.748 275.518 203.009 274.667C202.27 273.816 201.8 272.82 201.645 271.771C201.525 270.871 201.63 269.959 201.953 269.096C202.276 268.232 202.81 267.435 203.519 266.757C204.69 266.93 205.855 267.113 207.012 267.264C206.019 266.93 205.052 266.613 204.101 266.32C207.593 264.633 211.659 265.241 215.499 265.607C215.488 265.717 215.479 265.827 215.469 265.938C215.51 265.83 215.552 265.723 215.594 265.616C215.985 265.652 216.374 265.687 216.76 265.716C216.397 265.63 216.029 265.539 215.659 265.448C215.727 265.276 215.793 265.104 215.86 264.932C221.765 250.245 224.545 234.787 224.071 219.277C220.89 231.459 217.565 243.653 216.381 256.118C216.053 259.214 215.807 262.314 215.516 265.412C211.277 264.362 206.653 263.145 202.526 264.979C202.198 265.169 201.887 265.377 201.593 265.603C196.136 264.178 191.086 263.886 185.118 266.479C177.641 269.368 172.302 274.832 168.398 280.81C163.026 288.686 159.434 297.306 156.686 306.072C152.117 320.589 148.331 335.292 144.864 350.024C143.41 357.17 142.41 366.472 141.434 371.696C139.924 381.074 137.922 390.386 136.304 399.75C136.2 400.376 136.101 401.002 136 401.628C136.342 400.697 136.695 399.769 137.048 398.841C141.398 388.014 145.451 377.09 148.234 365.887C151.641 350.69 155.372 335.549 159.428 320.463C163.065 307.036 167.255 293.959 173.542 283.129C176.544 278.055 178.496 274.837 183.038 271.493C186.071 269.259 189.549 267.285 193.507 266.498C195.882 266.097 198.322 266.06 200.713 266.386C199.232 267.966 198.424 269.923 198.419 271.941C198.414 273.958 199.213 275.918 200.686 277.503C206.136 282.538 216.38 284.845 224.118 286.098C233.355 287.41 242.752 287.622 252.1 287.697C260.229 287.765 268.41 287.09 276.156 284.911C282.148 283.316 288.203 281.09 292.718 277.298C298.981 271.845 297.763 263.712 289.678 260.146Z" fill="black"/>
<path d="M317.844 270.675C315.917 268.409 313.807 266 310.757 264.775C305.93 262.945 300.568 262.374 295.356 263.136C300.48 263.136 305.49 264.416 309.758 266.816C311.682 268.086 312.887 269.977 314.067 271.748C319.842 280.421 316.284 295.777 315.068 306.888C313.639 318.256 311.845 329.601 311.026 341.016C310.16 354.302 310.224 367.616 310.057 380.917C310.053 381.679 310.049 382.44 310.041 383.202C310.144 382.773 310.251 382.344 310.355 381.915C313.93 367.495 316.026 352.859 318.052 338.236C319.567 327.651 320.742 317.033 322.236 306.445C323.53 295.456 325.46 280.214 317.844 270.675Z" fill="black"/>
<path d="M198.11 338.024C187.012 358.103 178.247 379.294 175.329 401.42C181.478 386.608 188.869 372.131 193.381 356.869C195.423 350.302 197.032 343.647 198.743 337.014C198.984 336.258 198.265 337.803 198.11 338.024Z" fill="black"/>
<path d="M283.098 336.68C278.537 347.298 275.236 358.275 273.244 369.447C271.388 380.888 271.142 392.472 271.595 404C276.355 385.088 279.874 368.654 281.891 350.354C282.455 345.615 282.81 340.859 283.456 336.128C283.604 335.388 283.24 336.438 283.098 336.68Z" fill="black"/>
<path d="M277.738 316.67C274.989 321.425 270.348 325.657 265.744 327.094C261.369 328.429 257.694 328.1 256.753 327.21C257.176 320.502 258.566 311.814 258.8 304.415C256.937 310.651 255.102 316.896 253.48 323.181C253.149 324.961 252.231 326.9 253.035 328.661C255.088 332.08 260.628 332.121 264.466 331.21C275.648 328.565 279.63 318.026 282.131 309.468C282.243 309.069 282.346 308.668 282.445 308.267C281.021 311.123 279.457 313.932 277.738 316.67Z" fill="black"/>
</g>
<g clip-path="url(#clip1_119_180)">
<path d="M38.4104 308.997C52.8944 302.148 72.6976 308.113 80.2064 321.585C87.7152 335.058 81.6197 353.688 67.3416 360.905C53.0634 368.123 33.0931 362.669 25.1931 349.395C17.293 336.12 22.3977 316.568 38.4104 308.997Z" fill="#A0FFF0"/>
<path d="M109.277 352.081C112.739 356.72 116.733 360.954 120.808 365.114C127.056 371.773 133.924 377.873 140.561 384.179C141.698 385.207 142.844 386.226 144 387.235C143.113 386.049 142.224 384.864 141.334 383.68C137.71 378.515 131.448 370.87 129.703 368.839C126.382 364.548 117.772 354.578 115.865 352.205C107.374 341.788 105.075 338.842 96.4231 328.72C92.2582 324.109 88.4075 319.23 83.9251 314.885C84.8017 314.031 85.5182 313.043 86.0438 311.963C88.172 307.696 87.6888 302.761 86.4025 298.333C85.7235 296.118 84.7797 293.768 82.6798 292.42C82.0161 292.091 81.2933 291.88 80.5482 291.8C80.396 290.085 80.2539 288.369 80.1354 286.652C79.7817 281.75 79.5577 276.837 78.9731 271.954C78.6125 268.703 78.4081 264.249 74.3623 263.27C72.1051 262.711 69.7779 263.147 67.5134 263.442C63.2693 264.085 62.5404 264.211 58.4315 264.572C46.473 265.35 34.4324 265.705 22.6267 267.81C18.1798 268.549 13.1385 268.8 9.90443 272.159C9.42538 272.581 8.97184 273.029 8.52999 273.485C9.30194 272.938 10.1034 272.43 10.931 271.961C14.6166 269.726 18.7697 270.462 23.0782 270.223C31.6694 269.802 40.273 270.142 48.8677 269.826C53.2887 269.777 57.704 269.511 62.0956 269.028C65.9922 268.648 69.0514 267.915 71.3809 267.822C71.796 267.795 72.2128 267.798 72.6274 267.832C72.7703 267.86 72.9132 267.89 73.0545 267.925C73.0678 267.939 73.0831 267.951 73.0963 267.965C73.1236 268.008 73.1552 268.058 73.1995 268.13C73.2159 268.172 73.2258 268.195 73.239 268.228C73.3215 268.444 73.3857 268.664 73.4313 268.889C74.3061 273.57 74.7596 283.246 75.2869 290.15C76.1732 299.308 77.0958 308.467 78.3149 317.591C79.7772 327.55 79.7289 337.627 80.5588 347.638C80.9258 352.374 81.6126 357.087 81.81 361.835C81.9771 368.646 81.7516 374.857 80.6609 380.059C79.5297 384.841 78.5191 388.246 76.7475 389.239C76.7031 389.256 76.6558 389.275 76.5859 389.305C75.4463 389.623 75.7568 389.502 73.5605 389.411C68.7314 389.115 63.9055 388.765 59.0927 388.285C53.7589 387.844 49.2929 386.845 42.7367 386.163C37.2963 385.645 31.843 385.25 26.4017 384.736C23.3853 384.49 20.9072 384.224 19.5849 383.631C17.6697 382.525 17.9613 382.736 17.5936 378.449C17.3452 372.503 16.9866 366.564 16.5571 360.628C16.1618 354.567 15.8211 348.5 15.1563 342.459C14.4357 336.171 13.4687 329.91 12.8099 323.615C11.9517 313.665 11.2225 303.702 10.2047 293.764C9.41012 286.422 8.30152 279.112 7.59397 271.761C6.81188 279.121 6.71289 286.523 6.62138 293.913C6.57593 296.007 6.55201 298.101 6.54963 300.195C4.73596 301.175 3.0149 302.322 1.94379 304.062C-1.01211 308.243 -0.6725 313.803 3.48384 317.15C4.62763 318.053 5.92461 318.768 7.32019 319.264C7.47926 321.285 7.68827 323.301 7.91365 325.315C5.61158 326.795 3.3928 328.483 2.39406 331.021C1.21347 333.779 1.07127 336.836 1.99126 339.681C2.72945 341.802 4.55276 343.406 6.49422 344.589C7.71799 345.291 9.04094 345.826 10.4236 346.179C10.6157 348.153 10.7869 350.13 10.8993 352.111C11.207 357.006 11.5626 361.898 11.8753 366.792C10.6921 366.2 9.60053 365.458 8.6313 364.585C5.26529 361.631 3.81457 356.767 5.48878 351.946C6.2964 349.799 8.23473 348.331 9.89617 346.777C7.75831 347.82 5.49641 348.903 4.15277 350.872C0.656494 355.943 2.63498 363.359 8.41464 366.078C8.54865 366.147 8.68795 366.206 8.82461 366.27C6.87662 367.887 4.87479 369.615 4.02889 372C2.28091 376.121 5.16491 380.192 9.20903 381.801C10.3265 382.269 11.5313 382.524 12.7537 382.551C12.7974 382.549 12.8411 382.549 12.8848 382.551C13.3851 384.779 14.6846 386.749 17.0111 387.79C20.2793 389.324 24.0496 389.255 27.6019 389.658C32.2586 390.089 36.9212 390.459 41.5808 390.86C45.8151 391.324 50.1577 391.998 55.8361 392.739C62.2894 393.492 68.7786 393.961 75.2687 394.316C76.2661 394.364 77.263 394.216 78.1969 393.882C79.1308 393.549 79.9813 393.036 80.6948 392.376C84.1224 396.205 86.8114 399.68 90.1261 403.712C94.7901 409.286 99.7569 414.624 104.687 419.988C112.508 428.536 120.44 437.078 129.974 443.983C130.432 444.326 130.894 444.665 131.36 445C130.629 444.117 129.896 443.236 129.159 442.358C122.726 434.881 116.612 426.314 109.206 417.974C104.62 412.958 99.4067 408.503 94.3162 403.955C89.8442 400.025 85.5361 395.921 80.7703 392.302C82.4969 390.711 83.6065 388.387 84.3263 386.081C86.6097 378.959 86.9896 371.455 86.9761 364.057C86.925 358.931 86.191 353.846 85.7543 348.744C85.232 342.665 84.9926 336.568 84.6474 330.479C84.4469 325.499 83.8091 320.557 83.1582 315.616C83.4197 315.381 83.6736 315.139 83.9199 314.89C92.4873 327.211 99.7043 340.39 109.277 352.081ZM6.67616 318.785C5.3151 317.828 4.17007 316.625 3.30828 315.245C1.25944 311.879 1.76091 307.839 3.73488 304.15C4.46819 302.907 5.42066 301.791 6.55134 300.85C6.55943 306.246 6.72955 311.64 7.16145 317.024C7.20783 317.767 7.26033 318.509 7.31895 319.25C7.10324 319.097 6.88768 318.943 6.67616 318.785ZM6.96689 343.111C4.12819 340.598 3.63278 338.175 3.78967 334.395C3.85536 332.461 4.4347 330.573 5.47448 328.905C6.21252 327.825 7.04932 326.808 7.97529 325.865C8.71831 332.38 9.68592 338.874 10.3469 345.396C9.11769 344.78 7.981 344.012 6.96689 343.111V343.111ZM12.8197 382.489C11.5352 382.035 10.3401 381.382 9.28358 380.557C3.85722 376.187 5.06048 371.878 8.86057 366.287C9.82892 366.736 10.8523 367.07 11.9075 367.282C12.023 369.108 12.1305 370.934 12.23 372.761C12.3526 375.364 12.4284 377.971 12.6431 380.57C12.658 381.222 12.7359 381.87 12.8756 382.508C12.8582 382.502 12.8427 382.497 12.8197 382.489V382.489ZM83.0316 314.654C82.9295 313.878 82.8282 313.103 82.7278 312.327C82.0003 305.585 81.1799 298.847 80.5739 292.093C81.1975 292.318 81.7723 292.649 82.2697 293.069C83.2196 294.173 83.849 295.491 84.0961 296.895C84.7906 300.033 85.0058 302.529 85.2267 306.054C85.3373 308.233 85.0031 310.412 84.2421 312.473C83.9054 313.231 83.5004 313.961 83.0316 314.654Z" fill="black"/>
<path d="M42.2172 278.376C36.4274 277.673 30.5516 277.943 24.8614 279.173C29.5082 279.444 34.1707 279.358 38.8026 278.914C40.0854 278.786 41.3644 278.619 42.6368 278.421C42.4969 278.406 42.3571 278.39 42.2172 278.376Z" fill="black"/>
<path d="M54.3728 275.875C51.0116 275.954 51.0203 280.604 54.3728 280.691C57.734 280.612 57.7252 275.963 54.3728 275.875Z" fill="black"/>
<path d="M57.0068 317C56.2375 314.211 54.5486 311.725 52.1842 309.901C52.6545 308.509 53.1351 307.12 53.6518 305.743C52.7938 306.876 52.0012 308.052 51.2774 309.265C49.9848 308.435 48.5209 307.873 46.9819 307.615C45.4068 307.435 43.7088 307.228 42.1929 307.776C39.8416 308.841 38.1371 310.911 36.7452 312.947C35.9699 313.491 35.2886 314.146 34.7256 314.887C31.9651 318.833 32.9141 323.934 34.3241 328.182C36.5388 335.604 46.4601 343.634 53.4724 336.166C55.433 333.964 56.4839 331.191 57.1347 328.414C58.2189 323.94 57.9469 320.701 57.0068 317ZM53.3726 327.675C52.3937 330.974 51.7113 332.658 49.5691 334.565C48.0999 335.706 45.7201 336.298 42.22 333.809C41.0596 333.034 40.0083 332.123 39.0915 331.097C38.1883 329.888 37.4085 328.6 36.7625 327.252C35.1085 323.511 33.6811 319.303 35.4553 315.481C36.3429 313.696 38.0565 312.481 39.4868 311.102C38.6507 311.678 37.7597 312.213 36.9282 312.809C37.8053 311.902 38.7879 311.091 39.8575 310.392C40.7862 309.784 41.7666 309.129 42.9101 308.972C44.2139 308.929 45.5135 309.135 46.7315 309.576C47.9495 310.018 49.0608 310.686 49.9993 311.542L49.9967 311.547C47.9809 315.291 46.4672 319.258 45.4906 323.356C44.1383 321.632 42.6544 320.004 41.0507 318.485C42.0328 320.209 43.0379 321.921 43.9343 323.687C44.5203 324.588 44.8856 326.81 46.4437 326.087C47.0031 325.73 47.1351 325.05 47.3612 324.488C47.6793 323.576 47.9984 322.664 48.3184 321.752C49.3575 318.795 50.2804 315.805 51.2301 312.821C51.9895 313.749 52.6296 314.759 53.1367 315.83C53.828 317.693 54.1804 319.654 54.179 321.629C54.1917 324.432 54.0711 324.882 53.3726 327.675Z" fill="black"/>
<path d="M39.2285 351.175C39.347 351.175 39.4359 351.204 39.4951 351.264C39.5628 351.314 39.5967 351.386 39.5967 351.479C39.5967 351.581 39.5713 351.661 39.5205 351.721C39.4697 351.78 39.402 351.822 39.3174 351.848C39.2412 351.873 39.1523 351.89 39.0508 351.898C38.9577 351.898 38.8646 351.898 38.7715 351.898C38.3483 351.898 37.9378 351.839 37.54 351.721C37.1507 351.594 36.8037 351.412 36.499 351.175C36.2028 350.938 35.9658 350.642 35.7881 350.286C35.6104 349.931 35.5215 349.516 35.5215 349.042C35.5215 348.433 35.6484 347.912 35.9023 347.48C36.1647 347.04 36.4863 346.676 36.8672 346.389C37.2565 346.101 37.6712 345.885 38.1113 345.741C38.5599 345.589 38.9746 345.496 39.3555 345.462C39.5078 345.462 39.6136 345.5 39.6729 345.576C39.7321 345.652 39.7617 345.733 39.7617 345.817C39.7617 346.029 39.6686 346.147 39.4824 346.173C39.1354 346.224 38.7715 346.317 38.3906 346.452C38.0182 346.579 37.6755 346.761 37.3623 346.998C37.0492 347.235 36.791 347.523 36.5879 347.861C36.3848 348.191 36.2832 348.585 36.2832 349.042C36.2832 349.414 36.3636 349.736 36.5244 350.007C36.6852 350.278 36.8926 350.502 37.1465 350.68C37.4004 350.849 37.6839 350.976 37.9971 351.061C38.3187 351.145 38.6361 351.188 38.9492 351.188C38.9915 351.188 39.0381 351.188 39.0889 351.188C39.1396 351.188 39.1862 351.183 39.2285 351.175ZM42.0469 347.899C42.1484 347.857 42.2246 347.836 42.2754 347.836C42.3431 347.836 42.4108 347.857 42.4785 347.899C42.5378 347.891 42.6012 347.882 42.6689 347.874C42.7451 347.857 42.8086 347.849 42.8594 347.849C43.1387 347.849 43.3926 347.908 43.6211 348.026C43.8496 348.136 44.0443 348.289 44.2051 348.483C44.3743 348.678 44.5055 348.907 44.5986 349.169C44.6917 349.431 44.7383 349.711 44.7383 350.007C44.7383 350.269 44.6875 350.523 44.5859 350.769C44.4928 351.006 44.3574 351.217 44.1797 351.403C44.0104 351.59 43.8115 351.738 43.583 351.848C43.3545 351.958 43.1133 352.013 42.8594 352.013C42.5462 352.013 42.2585 351.962 41.9961 351.86C41.7337 351.759 41.5094 351.619 41.3232 351.441C41.137 351.264 40.9889 351.052 40.8789 350.807C40.7773 350.561 40.7266 350.295 40.7266 350.007C40.7266 349.778 40.752 349.546 40.8027 349.309C40.8535 349.063 40.9339 348.839 41.0439 348.636C41.154 348.433 41.2894 348.263 41.4502 348.128C41.6195 347.993 41.8184 347.916 42.0469 347.899ZM42.1992 348.56C42.0215 348.585 41.8861 348.653 41.793 348.763C41.6999 348.864 41.6279 348.987 41.5771 349.131C41.5348 349.275 41.5094 349.427 41.501 349.588C41.4925 349.74 41.4883 349.88 41.4883 350.007C41.4883 350.159 41.5137 350.316 41.5645 350.477C41.6152 350.629 41.6956 350.769 41.8057 350.896C41.9242 351.014 42.068 351.111 42.2373 351.188C42.4066 351.264 42.6139 351.302 42.8594 351.302C43.0456 351.302 43.2106 351.268 43.3545 351.2C43.5068 351.124 43.6296 351.027 43.7227 350.908C43.8242 350.781 43.9004 350.642 43.9512 350.489C44.002 350.337 44.0273 350.176 44.0273 350.007C44.0273 349.567 43.9215 349.207 43.71 348.928C43.4984 348.64 43.2148 348.483 42.8594 348.458H42.6182C42.5505 348.458 42.4785 348.475 42.4023 348.509C42.3262 348.543 42.2585 348.56 42.1992 348.56ZM46.998 348.153C47.1335 348.069 47.29 348.009 47.4678 347.976C47.654 347.942 47.8444 347.925 48.0391 347.925C48.3099 347.942 48.5426 347.988 48.7373 348.064C48.932 348.141 49.0928 348.255 49.2197 348.407C49.3467 348.551 49.4398 348.742 49.499 348.979C49.5583 349.207 49.5879 349.491 49.5879 349.829C49.5879 350.176 49.571 350.502 49.5371 350.807C49.5033 351.103 49.4567 351.365 49.3975 351.594C49.3382 351.814 49.2663 351.987 49.1816 352.114C49.1055 352.25 49.0166 352.317 48.915 352.317C48.8389 352.317 48.7712 352.292 48.7119 352.241C48.6527 352.19 48.623 352.11 48.623 352C48.623 351.89 48.6357 351.75 48.6611 351.581C48.695 351.403 48.7288 351.217 48.7627 351.022C48.805 350.819 48.8389 350.616 48.8643 350.413C48.8981 350.201 48.915 350.007 48.915 349.829C48.915 349.584 48.8939 349.389 48.8516 349.245C48.8177 349.093 48.7627 348.974 48.6865 348.89C48.6188 348.797 48.5299 348.733 48.4199 348.699C48.3099 348.657 48.1829 348.627 48.0391 348.61C47.8613 348.61 47.6836 348.64 47.5059 348.699C47.3281 348.758 47.1758 348.788 47.0488 348.788C46.9727 348.788 46.9092 348.758 46.8584 348.699C46.8161 348.64 46.7949 348.572 46.7949 348.496C46.7949 348.437 46.8076 348.378 46.833 348.318C46.8669 348.251 46.9219 348.196 46.998 348.153ZM46.4395 348.026C46.4395 348.585 46.4437 349.152 46.4521 349.728C46.4606 350.295 46.4987 350.811 46.5664 351.276V351.365C46.5664 351.509 46.5283 351.619 46.4521 351.695C46.3844 351.763 46.3083 351.797 46.2236 351.797C46.1475 351.797 46.0755 351.763 46.0078 351.695C45.9401 351.628 45.8978 351.522 45.8809 351.378C45.8385 350.972 45.8047 350.553 45.7793 350.121C45.7539 349.689 45.7412 349.245 45.7412 348.788C45.7412 348.695 45.737 348.589 45.7285 348.471C45.7201 348.352 45.7201 348.242 45.7285 348.141C45.7454 348.031 45.7793 347.942 45.8301 347.874C45.8893 347.798 45.9782 347.76 46.0967 347.76C46.1813 347.76 46.2575 347.789 46.3252 347.849C46.4014 347.899 46.4395 347.959 46.4395 348.026ZM53.8535 351.987C53.0241 351.92 52.4147 351.645 52.0254 351.162C51.6361 350.68 51.4414 349.99 51.4414 349.093V348.56C51.1113 348.56 50.8363 348.53 50.6162 348.471C50.3962 348.403 50.2861 348.263 50.2861 348.052C50.3031 347.976 50.3411 347.912 50.4004 347.861C50.4596 347.802 50.5443 347.772 50.6543 347.772C50.7559 347.772 50.8786 347.785 51.0225 347.811C51.1663 347.836 51.3229 347.849 51.4922 347.849C51.4922 347.578 51.5007 347.303 51.5176 347.023C51.5345 346.736 51.5641 346.478 51.6064 346.249C51.6572 346.021 51.7207 345.834 51.7969 345.69C51.873 345.538 51.9746 345.462 52.1016 345.462C52.1947 345.462 52.2793 345.504 52.3555 345.589C52.4316 345.665 52.4697 345.771 52.4697 345.906C52.4697 346.118 52.4443 346.401 52.3936 346.757C52.3428 347.112 52.3047 347.485 52.2793 347.874C52.347 347.882 52.4147 347.891 52.4824 347.899C52.5586 347.899 52.6348 347.899 52.7109 347.899C52.8464 347.899 52.9818 347.895 53.1172 347.887C53.2611 347.878 53.4049 347.866 53.5488 347.849C53.6673 347.849 53.7646 347.882 53.8408 347.95C53.917 348.018 53.9551 348.094 53.9551 348.179C53.9551 348.297 53.9212 348.386 53.8535 348.445C53.7858 348.496 53.6969 348.534 53.5869 348.56C53.4854 348.576 53.3626 348.585 53.2188 348.585C53.0833 348.585 52.9479 348.585 52.8125 348.585H52.2285C52.2201 348.678 52.2158 348.767 52.2158 348.852C52.2158 348.936 52.2158 349.021 52.2158 349.105C52.2158 349.41 52.2412 349.685 52.292 349.931C52.3512 350.168 52.4486 350.379 52.584 350.565C52.7194 350.752 52.8971 350.904 53.1172 351.022C53.3372 351.141 53.6081 351.226 53.9297 351.276C54.0228 351.293 54.0905 351.331 54.1328 351.391C54.1751 351.45 54.1963 351.518 54.1963 351.594C54.1963 351.695 54.1667 351.788 54.1074 351.873C54.0566 351.949 53.972 351.987 53.8535 351.987ZM56.5957 348.585H56.2656C56.1217 348.661 56.0117 348.763 55.9355 348.89C55.8594 349.017 55.8001 349.152 55.7578 349.296C55.724 349.431 55.7028 349.562 55.6943 349.689C55.6859 349.816 55.6816 349.918 55.6816 349.994C55.6816 350.163 55.7028 350.324 55.7451 350.477C55.7959 350.629 55.8636 350.764 55.9482 350.883C56.0413 350.993 56.1471 351.082 56.2656 351.149C56.3841 351.217 56.5195 351.251 56.6719 351.251C56.9427 351.251 57.1501 351.192 57.2939 351.073C57.4463 350.955 57.5563 350.807 57.624 350.629C57.7002 350.451 57.7467 350.261 57.7637 350.058C57.7806 349.846 57.7891 349.651 57.7891 349.474C57.7721 349.364 57.734 349.254 57.6748 349.144C57.6156 349.025 57.5394 348.924 57.4463 348.839C57.3617 348.754 57.2643 348.687 57.1543 348.636C57.0527 348.576 56.9469 348.547 56.8369 348.547C56.7523 348.547 56.6719 348.56 56.5957 348.585ZM58.3223 350.794C58.2292 351.183 58.0218 351.479 57.7002 351.683C57.3786 351.886 57.0231 351.987 56.6338 351.987C56.3545 351.987 56.1048 351.928 55.8848 351.81C55.6732 351.683 55.4954 351.522 55.3516 351.327C55.2077 351.124 55.0977 350.9 55.0215 350.654C54.9538 350.4 54.9199 350.146 54.9199 349.893C54.9199 349.689 54.9453 349.469 54.9961 349.232C55.0469 348.987 55.1273 348.763 55.2373 348.56C55.3473 348.356 55.4912 348.187 55.6689 348.052C55.8467 347.908 56.0625 347.836 56.3164 347.836C56.4518 347.836 56.5449 347.849 56.5957 347.874C56.638 347.866 56.6761 347.861 56.71 347.861C56.7438 347.861 56.7819 347.861 56.8242 347.861C57.222 347.861 57.5352 347.946 57.7637 348.115C57.9922 348.285 58.1742 348.505 58.3096 348.775C58.4535 349.038 58.5677 349.33 58.6523 349.651C58.737 349.973 58.8385 350.282 58.957 350.578C58.9909 350.68 59.0417 350.794 59.1094 350.921C59.1771 351.039 59.2448 351.158 59.3125 351.276C59.3802 351.395 59.4352 351.501 59.4775 351.594C59.5283 351.687 59.5537 351.759 59.5537 351.81C59.5537 351.903 59.5199 351.975 59.4521 352.025C59.3844 352.076 59.3083 352.102 59.2236 352.102C59.139 352.102 59.0501 352.068 58.957 352C58.8724 351.924 58.7878 351.826 58.7031 351.708C58.627 351.59 58.555 351.45 58.4873 351.289C58.4196 351.128 58.3646 350.963 58.3223 350.794ZM63.6797 351.302C63.8066 351.302 63.8997 351.331 63.959 351.391C64.0182 351.441 64.0479 351.513 64.0479 351.606C64.0479 351.725 64.0182 351.814 63.959 351.873C63.8997 351.924 63.8278 351.958 63.7432 351.975C63.6585 351.992 63.5654 352 63.4639 352C63.3623 352 63.2734 352 63.1973 352C62.8418 352 62.4906 351.962 62.1436 351.886C61.7965 351.801 61.4876 351.678 61.2168 351.518C60.946 351.357 60.7259 351.154 60.5566 350.908C60.3874 350.663 60.3027 350.371 60.3027 350.032C60.3027 349.634 60.3958 349.3 60.582 349.029C60.7767 348.75 61.0179 348.526 61.3057 348.356C61.6019 348.179 61.9277 348.052 62.2832 347.976C62.6471 347.899 63.0026 347.861 63.3496 347.861C63.5697 347.861 63.7389 347.891 63.8574 347.95C63.9759 348.001 64.0352 348.103 64.0352 348.255C64.0352 348.348 64.0098 348.424 63.959 348.483C63.9167 348.543 63.8532 348.572 63.7686 348.572C63.7093 348.572 63.6543 348.572 63.6035 348.572C63.5527 348.564 63.502 348.56 63.4512 348.56C63.1549 348.56 62.8672 348.589 62.5879 348.648C62.3171 348.708 62.0716 348.801 61.8516 348.928C61.64 349.055 61.4665 349.22 61.3311 349.423C61.2041 349.618 61.1406 349.854 61.1406 350.134C61.1406 350.354 61.2083 350.54 61.3438 350.692C61.4792 350.845 61.6527 350.967 61.8643 351.061C62.0758 351.154 62.3086 351.221 62.5625 351.264C62.8164 351.306 63.0618 351.327 63.2988 351.327C63.3665 351.327 63.43 351.327 63.4893 351.327C63.5485 351.319 63.612 351.31 63.6797 351.302ZM68.2246 351.987C67.3952 351.92 66.7858 351.645 66.3965 351.162C66.0072 350.68 65.8125 349.99 65.8125 349.093V348.56C65.4824 348.56 65.2074 348.53 64.9873 348.471C64.7673 348.403 64.6572 348.263 64.6572 348.052C64.6742 347.976 64.7122 347.912 64.7715 347.861C64.8307 347.802 64.9154 347.772 65.0254 347.772C65.127 347.772 65.2497 347.785 65.3936 347.811C65.5374 347.836 65.694 347.849 65.8633 347.849C65.8633 347.578 65.8717 347.303 65.8887 347.023C65.9056 346.736 65.9352 346.478 65.9775 346.249C66.0283 346.021 66.0918 345.834 66.168 345.69C66.2441 345.538 66.3457 345.462 66.4727 345.462C66.5658 345.462 66.6504 345.504 66.7266 345.589C66.8027 345.665 66.8408 345.771 66.8408 345.906C66.8408 346.118 66.8154 346.401 66.7646 346.757C66.7139 347.112 66.6758 347.485 66.6504 347.874C66.7181 347.882 66.7858 347.891 66.8535 347.899C66.9297 347.899 67.0059 347.899 67.082 347.899C67.2174 347.899 67.3529 347.895 67.4883 347.887C67.6322 347.878 67.776 347.866 67.9199 347.849C68.0384 347.849 68.1357 347.882 68.2119 347.95C68.2881 348.018 68.3262 348.094 68.3262 348.179C68.3262 348.297 68.2923 348.386 68.2246 348.445C68.1569 348.496 68.068 348.534 67.958 348.56C67.8564 348.576 67.7337 348.585 67.5898 348.585C67.4544 348.585 67.319 348.585 67.1836 348.585H66.5996C66.5911 348.678 66.5869 348.767 66.5869 348.852C66.5869 348.936 66.5869 349.021 66.5869 349.105C66.5869 349.41 66.6123 349.685 66.6631 349.931C66.7223 350.168 66.8197 350.379 66.9551 350.565C67.0905 350.752 67.2682 350.904 67.4883 351.022C67.7083 351.141 67.9792 351.226 68.3008 351.276C68.3939 351.293 68.4616 351.331 68.5039 351.391C68.5462 351.45 68.5674 351.518 68.5674 351.594C68.5674 351.695 68.5378 351.788 68.4785 351.873C68.4277 351.949 68.3431 351.987 68.2246 351.987Z" fill="black"/>
</g>
<defs>
<clipPath id="clip0_119_180">
<rect width="213" height="404" fill="white" transform="translate(136)"/>
</clipPath>
<clipPath id="clip1_119_180">
<rect width="144" height="182" fill="white" transform="translate(0 263)"/>
</clipPath>
</defs>
</svg>
