<svg width="116" height="126" viewBox="0 0 116 126" fill="none" xmlns="http://www.w3.org/2000/svg">
<g clip-path="url(#clip0_117_98)">
<path d="M49.1013 27.6935C48.3424 24.8033 46.4147 22.3816 44.5187 20.069C42.6227 17.7565 40.6625 15.3727 39.8159 12.5068C38.9693 9.64092 39.532 6.1342 41.9516 4.37403C44.3712 2.61387 48.6108 3.79016 49.0431 6.74665L52.3618 29.443C51.1837 24.6495 51.0967 19.6535 52.1073 14.8221C53.1179 9.9906 55.2004 5.4464 58.2018 1.52325C60.0649 -0.874207 64.4962 -0.343372 65.7377 2.42598C66.9805 5.27806 67.4909 8.39435 67.2227 11.4928C66.9545 14.5913 65.9162 17.5741 64.2017 20.1713C60.7303 25.3124 54.5048 28.4769 49.1013 27.6935Z" fill="#A0FFF0"/>
<path d="M65.4584 6.79844C65.4458 6.78304 65.4321 6.7687 65.4194 6.7533C65.4361 6.77422 65.4529 6.79455 65.4707 6.81523L65.4584 6.79844Z" fill="black"/>
<path d="M115.578 41.5618C114.814 38.0437 110.648 36.6498 108.821 36.3148C105.532 35.7122 102.182 35.7337 98.8514 35.8238C94.2645 35.9159 89.6767 36.0324 85.0887 35.9624C75.5838 35.823 66.1098 34.9884 56.6233 34.4376C58.3555 33.5926 59.9992 32.5778 61.5302 31.4083C66.1024 27.9358 69.0584 22.5938 70.105 16.9997C70.6218 14.3884 70.8416 11.6614 70.2471 9.0449C69.627 6.07596 67.6136 2.51086 64.2067 2.46805C62.0365 2.60966 60.4878 4.4313 59.3606 6.11893C57.5654 9.2641 56.4449 12.715 55.4431 16.1935C55.1639 15.4875 54.8451 14.7961 54.5069 14.1176C53.4901 12.2591 52.4169 10.304 50.6175 9.09217C48.154 7.44517 44.7051 7.20312 42.1175 8.70468C38.265 11.0366 38.175 16.3256 39.3528 20.1977C40.2378 23.3541 42.1118 26.1018 44.1106 28.6593C45.5438 30.5369 47.087 32.3238 48.6931 34.0538C43.9165 33.8391 39.1394 33.6186 34.358 33.5851C26.3901 33.6563 18.4228 33.9649 10.4688 34.434C10.0604 34.4593 9.65201 34.4852 9.2437 34.5117C9.9421 34.6453 10.6409 34.7768 11.3401 34.9062C20.0107 36.5385 27.8751 37.3526 37.1007 37.7682C44.3408 38.0467 51.5824 38.3273 58.8138 38.7836C68.015 39.3413 77.2198 40.0169 86.443 39.993C93.2689 40.1209 100.199 39.4582 106.989 39.9607C107.93 40.0355 108.857 40.2323 109.747 40.5461C109.843 40.5806 109.937 40.6195 110.032 40.657C110.252 40.7633 110.652 40.9563 110.826 41.0627C110.965 41.1454 111.101 41.2335 111.235 41.3239C111.989 41.9971 111.723 41.7885 112.039 42.2428C112.746 44.6532 112.462 43.3481 112.673 45.8357C112.747 48.4258 112.624 51.0177 112.303 53.589C112.179 54.4435 112.037 55.2959 111.848 56.1386C111.617 57.1411 111.589 57.1172 111.566 57.2526C111.53 57.3793 111.484 57.509 111.449 57.6032C111.36 57.7791 111.23 57.9894 111.172 58.089C111.114 58.153 111.053 58.2138 110.988 58.2711C110.984 58.274 110.979 58.2775 110.975 58.2804C110.941 58.2889 110.907 58.2975 110.872 58.3038C110.483 58.3338 110.092 58.3227 109.701 58.314C106.679 58.179 103.65 58.3219 100.654 58.7407C100.632 58.6705 100.607 58.6012 100.586 58.5308C100.596 58.6023 100.609 58.6734 100.619 58.7449C99.2509 58.9098 97.8844 59.0938 96.5194 59.2699C92.985 59.7124 89.4293 59.9655 85.8677 60.0278C79.2996 60.0319 72.7584 59.2856 66.1948 59.1822C59.0944 59.1684 52.0124 59.7749 44.9144 59.8347C38.8316 59.8894 31.753 59.4269 26.8907 58.671C22.4872 58.0314 18.0917 57.2677 13.641 57.0417C11.9459 56.9584 10.2497 56.8731 8.55207 56.8781C7.01344 56.8864 5.47779 57.0896 3.93927 57.0211C3.90944 57.0199 3.87991 57.015 3.85018 57.0126C3.71306 56.981 3.56383 56.9377 3.45018 56.9034C3.43514 56.8951 3.42034 56.8864 3.40553 56.8777C3.3759 56.7547 3.35274 56.6303 3.33612 56.505C3.33673 52.9722 3.09715 44.638 3.38801 39.498C3.49855 37.7265 3.96004 34.6885 5.76971 33.4229C6.71028 32.9341 6.97498 33.1106 8.14573 32.9666C10.1814 32.8166 12.223 32.7954 14.2631 32.787C11.9137 32.1834 9.51835 31.7744 7.10148 31.564C4.11267 31.1384 2.32262 34.1871 1.4565 36.6115C0.758662 38.8678 0.541555 41.2476 0.321003 43.5898C0.106034 46.4485 -0.0358935 49.3158 0.00795967 52.1832C0.202304 56.5503 -0.675216 60.5787 5.32547 60.0807C13.81 59.319 20.6072 60.6447 28.5008 61.6638C34.538 62.4153 40.622 62.7282 46.7047 62.6C47.7171 62.5766 48.7296 62.5457 49.7422 62.5076C49.006 69.9009 47.7343 77.2546 47.5511 84.6905C47.3959 91.1387 47.4644 97.5881 47.5078 104.037C47.4958 109.51 47.4667 114.984 47.923 120.443C47.9355 120.664 47.9504 120.886 47.9638 121.107C47.1655 121.063 46.3675 121.015 45.5687 120.976C39.9951 120.634 34.4139 120.436 28.8386 120.126C26.0037 119.943 23.1716 119.692 20.3311 119.611C18.5244 119.547 16.7128 119.725 14.909 119.61C14.6853 119.587 14.4674 119.524 14.265 119.426C14.2306 119.395 14.1968 119.363 14.165 119.329C14.1053 119.242 14.0569 119.149 14.021 119.05C13.6803 117.579 13.4304 116.089 13.2729 114.587C12.618 108.953 12.1878 103.3 11.9824 97.6255C11.826 93.3988 11.735 89.1592 12.2298 84.9498C12.8129 77.3475 11.096 80.6638 11.6107 72.1222C9.76017 80.2642 10.6607 76.1954 9.58068 84.5154C8.96596 88.1984 9.02374 91.9366 9.18046 95.6543C9.34211 100.305 9.65714 104.947 10.1255 109.581C10.377 112.066 10.6502 114.552 11.0214 117.023C11.3881 119.353 11.6946 121.852 14.5745 122.101C15.9558 122.275 17.3532 122.12 18.741 122.135C20.6265 122.104 22.5093 122.226 24.3901 122.344C31.1229 122.847 37.8738 123.017 44.6133 123.406C54.1726 123.872 63.7068 124.667 73.2433 125.453C86.8601 126.684 98.4019 126.51 108.447 117.616C114.331 112.34 114.656 108.106 113.345 100.657C112.14 94.1577 110.392 87.763 108.565 81.4145C107.148 76.8848 105.403 72.4685 103.742 68.0252C103.211 66.5425 102.823 65.0141 102.319 63.5224C102.107 62.9061 101.885 62.2933 101.663 61.6804C102.669 61.5704 103.676 61.4716 104.687 61.403C105.988 61.3141 107.295 61.3182 108.599 61.3531C109.662 61.3754 110.74 61.4877 111.788 61.2484C114.484 60.2756 114.743 57.615 115.209 55.4689C115.575 53.3431 115.805 51.196 115.896 49.0408C116.12 46.5447 116.013 44.0301 115.578 41.5618ZM52.1156 25.8942C52.0834 26.106 52.052 26.318 52.0132 26.5288C51.7418 28.0723 51.3595 29.5943 50.8691 31.0831C50.331 32.6884 50.242 32.6851 49.969 33.4958C49.9005 33.698 49.8249 33.8991 49.7592 34.1014L49.6941 34.0985C46.4186 28.7631 42.8235 22.5253 42.443 18.6574C42.1912 16.5995 42.2345 15.748 42.4609 14.6588C42.9081 13.1317 42.5631 13.9032 43.3089 12.6021C43.3214 12.5878 43.3328 12.5726 43.3455 12.5585C43.9004 12.0584 43.3969 12.3384 44.4277 11.822C44.6783 11.7237 44.9381 11.6509 45.2033 11.6047C45.617 11.5575 46.0355 11.5727 46.4446 11.6497C47.9842 12.0444 47.2566 11.699 48.481 12.4806L48.53 12.5217C49.502 13.4569 49.058 12.9795 50.0348 14.5011C51.2248 16.616 51.2503 16.6716 51.8092 18.3329C52.3195 20.4105 52.4796 22.6893 52.1156 25.8942ZM53.7947 34.2858C54.2398 33.3173 54.656 32.3339 55.0063 31.3273C55.1067 31.0327 55.21 30.7388 55.2991 30.4405C55.5936 29.7086 55.6896 28.8705 55.9107 28.1272C56.1002 27.1964 56.242 26.2566 56.3355 25.3114C57.4716 21.3895 58.4149 17.4115 59.6995 13.5333C60.7528 10.6295 60.9435 9.64831 62.6171 7.13611C62.9055 6.77558 63.2294 6.44482 63.584 6.14878C63.7279 6.05545 63.9084 5.95985 64.0282 5.89834C64.1048 5.87316 64.1737 5.85341 64.2246 5.83935C64.2383 5.83911 64.2519 5.83955 64.2656 5.8396C64.3342 5.85641 64.4017 5.87558 64.4688 5.89796C64.5575 5.94537 64.6731 6.00979 64.7792 6.07778C64.862 6.15067 64.9846 6.26167 65.0917 6.37378C65.2076 6.49437 65.3132 6.62416 65.4194 6.75332C65.2994 6.6031 65.2258 6.47563 65.3693 6.67182C65.3589 6.65947 65.3485 6.64654 65.3382 6.63492C65.3795 6.68848 65.4181 6.74403 65.4583 6.79847C65.4616 6.80252 65.4653 6.80631 65.4686 6.81037L65.4772 6.82258L65.4707 6.81526C65.483 6.83207 65.4955 6.84883 65.5077 6.86568C65.5191 6.88147 65.526 6.89062 65.534 6.90152C65.5537 6.92903 65.5748 6.95547 65.594 6.98317C66.3212 8.16912 66.0809 7.69916 66.5831 9.36741C66.9074 10.9599 66.8483 10.5282 66.8978 12.5374C66.9952 16.4971 65.4511 22.4793 64.127 25.0069C62.4926 28.4202 60.6979 30.5549 57.9282 33.1565C57.4552 33.5929 56.9679 34.0137 56.477 34.4298C55.5831 34.3781 54.689 34.3302 53.7947 34.2858ZM77.3988 123.317C67.6798 122.63 59.6017 111.19 49.8734 110.638C50.3346 102.977 49.7852 105.851 50.1166 98.182C50.3746 92.4082 50.3522 86.6316 50.2282 80.855C50.2512 74.7355 50.226 68.6138 49.8534 62.5037C57.8055 62.2138 65.7629 61.6282 73.7097 62.3153C78.0737 62.5899 82.4494 62.8746 86.8244 62.8912C86.0391 72.2623 85.2109 81.6484 85.1746 91.0584C85.2619 101.161 86.0679 111.248 87.1489 121.29C87.2291 122.002 87.3097 122.714 87.3909 123.427C84.0619 123.631 80.7225 123.594 77.3988 123.317ZM102.251 68.4352C103.259 72.7302 104.445 76.9828 105.634 81.2306C107.057 86.6366 108.601 92.0145 109.864 97.4606C110.941 102.241 111.952 107.718 110.588 110.779C108.71 114.832 104.397 118.148 99.9417 120.323C96.2068 122.187 91.9754 123.098 87.5033 123.42C87.5151 123.182 87.528 122.944 87.5385 122.706C88.4534 102.78 94.8984 103.159 93.2153 83.2716C94.5174 83.2764 89.4409 62.8798 90.7425 62.829C94.2112 62.6697 97.6441 62.1363 101.091 61.7421C101.463 63.9756 101.87 66.204 102.251 68.4352Z" fill="black"/>
<path d="M28.9426 84.2616C28.6609 76.7566 28.3823 69.2472 27.84 61.7559C26.9445 72.1579 25.9793 82.5943 26.2571 93.0452C26.4813 97.0753 26.7652 101.106 27.2224 105.117C27.6465 108.748 28.0972 111.185 28.3806 115.081C28.4419 115.954 28.512 116.826 28.5907 117.698C28.6238 117.238 28.6572 116.777 28.6908 116.317C29.2087 110.775 28.8504 105.204 29.0153 99.6483C29.0041 94.5196 29.0539 89.3894 28.9426 84.2616Z" fill="black"/>
<path d="M71.516 89.7064C71.253 84.2523 70.6844 78.8192 70.1885 73.3828C69.8689 69.7165 69.6798 66.0399 69.3476 62.3746C68.3995 72.0116 68.3434 81.6994 68.7534 91.3683C69.0537 101.153 69.8797 110.908 71.0936 120.621C71.4097 117.293 71.4475 109.635 71.5536 104.826C71.6309 99.7868 71.8076 94.7428 71.516 89.7064Z" fill="black"/>
</g>
<defs>
<clipPath id="clip0_117_98">
<rect width="116" height="126" fill="white"/>
</clipPath>
</defs>
</svg>
