<svg width="181" height="161" viewBox="0 0 181 161" fill="none" xmlns="http://www.w3.org/2000/svg">
<g clip-path="url(#clip0_58_144)">
<path d="M189.816 17.9969L177.382 38.251C174.366 43.164 177.82 48.3671 182.165 46.4509C186.511 44.5348 189.978 38.2835 190.751 33.0708C191.524 27.8582 190.281 23.461 189.816 17.9969Z" fill="#A0FFF0"/>
<path d="M128.968 124.767L127.172 148.439C126.736 154.181 132.192 157.244 135.182 153.566C138.173 149.887 138.397 142.749 136.7 137.759C135.002 132.768 131.882 129.419 128.968 124.767Z" fill="#A0FFF0"/>
<path d="M17.6216 12.6257L16.5265 35.9513C16.2608 41.6093 24.7816 44.4537 29.0813 40.7462C33.3811 37.0388 33.228 30.0151 30.297 25.161C27.366 20.3069 22.383 17.11 17.6216 12.6257Z" fill="#A0FFF0"/>
<path d="M65.7034 115.16L56.2249 127.275C53.9257 130.214 56.7057 134.473 60.0885 133.873C63.4713 133.274 66.1059 129.47 66.6417 125.934C67.1776 122.397 66.1423 119.087 65.7034 115.16Z" fill="#A0FFF0"/>
<path d="M83.3797 3.97416L82.2845 27.2997C82.0189 32.9578 90.5396 35.8021 94.8394 32.0946C99.1391 28.3872 98.9861 21.3635 96.0551 16.5094C93.124 11.6554 88.1411 8.45842 83.3797 3.97416Z" fill="#A0FFF0"/>
<path d="M114.719 56.728L113.624 80.0536C113.358 85.7116 121.879 88.5559 126.179 84.8485C130.478 81.141 130.325 74.1173 127.394 69.2633C124.463 64.4092 119.48 61.2122 114.719 56.728Z" fill="#A0FFF0"/>
<path d="M61.0968 44.0886L76.3419 62.3381C80.0399 66.7649 86.0986 65.1851 85.6775 60.4705C85.2565 55.7559 80.4317 50.473 75.7262 48.0642C71.0207 45.6553 66.4404 45.411 61.0968 44.0886Z" fill="#A0FFF0"/>
<path d="M164.43 60.7063C163.263 61.6505 161.838 62.0971 160.206 62.6574C157.998 63.3644 155.766 63.9945 153.565 64.721C151.854 65.2874 150.063 65.6525 148.444 66.4618C147.658 66.8974 146.911 67.3996 146.211 67.9627C146.522 67.1345 146.789 66.2908 147.011 65.435C147.627 62.7106 147.939 59.927 147.943 57.1346C147.945 54.7408 147.563 52.3675 147.112 50.0222C147.088 49.9063 147.064 49.7907 147.04 49.6749C147.39 48.1934 147.602 46.683 147.675 45.1628C147.753 43.4733 147.595 41.7848 147.44 40.1037C147.205 37.2243 146.596 34.3873 145.628 31.6636C144.867 29.4285 143.97 27.2416 142.942 25.1148C142.758 24.7521 142.568 24.3926 142.372 24.0363C142.526 24.7326 142.674 25.43 142.814 26.1293C143.768 31.0342 144.822 35.9193 145.745 40.8303C146.158 42.8747 146.602 44.9956 146.79 46.7152C146.829 47.0683 146.919 48.4191 146.975 49.3578C146.799 48.5237 146.605 47.6933 146.372 46.8731C146.374 47.4523 146.369 48.0313 146.359 48.6104C145.957 48.2375 145.554 47.8646 145.189 47.456C144.803 46.969 144.451 46.4568 144.135 45.9227C142.806 43.6686 142.127 41.5893 141.332 38.8401C140.567 36.1834 140.005 33.4728 139.652 30.7316C139.473 28.8397 139.02 23.5754 138.556 20.5846C138.277 18.6425 138.057 17.0329 137.865 14.8544C138.03 14.966 138.071 15.0174 138.223 15.1209C139.026 15.6464 140.401 17.6812 141.462 19.6669C142.614 21.742 143.728 23.8378 144.803 25.9541C145.776 27.9009 146.431 29.6051 147.193 32.1834C147.698 33.9079 147.963 35.6907 148.216 37.4663C148.203 37.3684 148.19 37.2706 148.177 37.1727C148.588 40.2079 148.734 43.273 148.614 46.3334C148.607 47.1948 148.508 48.053 148.318 48.8933C148.161 49.5611 147.906 50.2019 147.559 50.7946C149.371 49.0224 149.78 46.398 150.206 44.012C150.614 41.5002 150.645 38.942 150.299 36.4211C150.076 34.6434 149.712 32.8859 149.213 31.1649C148.252 27.8321 146.731 24.7062 145.069 21.6711C144.254 20.1587 143.431 18.6508 142.553 17.1734C141.505 15.3892 140.19 13.6937 138.36 12.6558C137.43 12.1518 136.009 11.8629 135.621 13.1617C135.468 14.1574 135.71 15.1753 135.77 16.1738C136.068 18.9289 136.384 20.7929 136.654 22.9882C137.001 25.6745 137.184 28.3905 137.516 31.0815C137.362 30.8303 137.116 30.6484 136.83 30.5739C136.543 30.4995 136.24 30.5383 135.982 30.6823C135.818 30.7757 135.678 30.9068 135.575 31.0646C135.297 31.4084 135.016 31.7509 134.734 32.092C133.874 33.1387 132.955 34.1487 132.24 35.3042C131.394 36.7321 130.767 38.2778 130.378 39.8901C129.721 42.6404 129.868 45.4894 129.699 48.2908C129.551 49.5373 129.3 50.7694 128.948 51.9745C128.806 51.8599 128.664 51.7437 128.518 51.6237C126.593 49.9854 125.785 48.8213 124.693 46.404C124.519 45.9643 124.356 45.5206 124.205 45.0727C123.805 43.9116 123.548 42.7062 123.44 41.4832C123.336 40.0175 123.374 38.5451 123.555 37.0867C123.635 37.0842 123.715 37.0777 123.794 37.0689C123.814 37.2526 123.835 37.436 123.86 37.6193C123.877 37.4305 123.901 37.2405 123.923 37.051C124.37 36.9867 124.794 36.808 125.151 36.5322C126.02 35.8869 126.793 35.1235 127.449 34.2643C130.864 30.1591 131.171 24.5533 131.065 19.4469C131.066 14.6867 130.626 9.94739 130.196 5.21138C130.213 4.173 129.167 3.43872 128.308 4.21742C128.126 4.433 127.996 4.68808 127.931 4.96227C127.785 5.40432 127.626 5.84197 127.471 6.28093C126.617 8.64206 125.765 10.7071 125.023 12.4082C123.721 15.4224 121.978 19.0183 121.789 21.1671C121.507 23.0437 121.563 24.9543 121.7 26.8415C121.867 28.9306 122.338 31.4208 123.699 33.5371C123.693 33.6576 123.69 33.7781 123.686 33.8987C123.308 34.8987 122.937 35.9077 122.62 36.9313C122.562 36.9286 122.504 36.9238 122.446 36.916C122.499 36.9368 122.553 36.9556 122.607 36.9724C122.196 38.2514 121.914 39.5678 121.765 40.9023C121.378 44.586 122.641 48.331 124.96 51.1974C125.968 52.4762 127.269 53.4803 128.552 54.4694C129.872 55.4685 131.187 56.4744 132.52 57.4549C133.586 58.2631 134.88 59.1672 136.168 60.6765L136.186 60.6995C136.195 60.7121 136.212 60.7375 136.247 60.7866C136.713 61.4609 137.141 62.1597 137.531 62.8799C137.61 63.019 137.684 63.1522 137.756 63.2806C137.262 63.2469 136.778 63.2154 136.302 63.1796C136.285 63.0972 136.268 63.0147 136.251 62.9323C136.16 62.4451 136 61.9731 135.777 61.5305C135.116 60.3528 134.108 59.4099 133.152 58.4704C131.757 57.1522 130.251 55.9561 128.651 54.8953C127.21 53.9909 125.667 53.2652 124.148 52.5044C121.216 51.0444 118.295 49.4198 115.077 48.6807C114.297 48.5578 113.435 48.2225 112.675 48.5661C112.559 48.63 112.456 48.7165 112.374 48.8204C112.291 48.9244 112.23 49.0437 112.195 49.1714C112.159 49.2992 112.15 49.4326 112.167 49.564C112.184 49.6954 112.228 49.8221 112.295 49.9365C112.44 50.1383 112.617 50.315 112.819 50.4597C112.8 50.4545 113.179 50.7783 113.298 50.8721C114.404 51.7412 115.486 52.6412 116.558 53.5514C119.523 56.0596 122.527 58.5378 125.736 60.7316C128.041 62.2593 130.649 63.4994 133.435 63.7573C134.909 63.8297 136.378 63.6283 137.837 63.4256C138.622 64.7574 139.274 66.1628 139.784 67.6216C140.396 69.6598 140.817 71.7501 141.042 73.8657C140.357 75.0473 139.586 76.1776 138.735 77.2477C137.57 78.731 136.137 79.9621 134.695 81.1693C132.033 83.4149 128.394 85.3556 124.899 86.5111C123.385 87.0418 121.936 87.4821 120.517 87.8481C120.951 86.3214 121.346 84.5201 121.875 83.5561C122.463 82.6116 123.216 81.7805 123.843 80.8613C123.986 80.6581 124.126 80.4508 124.263 80.2414C126.908 79.9529 128.973 79.0354 130.445 76.6927C130.509 76.5965 130.567 76.4969 130.626 76.3984C130.435 76.541 130.243 76.6833 130.048 76.8217C128.291 78.1539 126.341 79.1865 124.345 80.115C124.881 79.3024 125.311 78.4261 125.628 77.5066C126.482 76.946 127.294 76.3236 128.056 75.6443C129.249 74.3543 129.976 72.7421 130.406 71.5666C130.487 71.3112 130.553 71.051 130.601 70.7874C132.041 73.2173 132.388 75.2853 130.781 77.6553C129.867 78.9581 128.503 80.6433 126.797 81.5992C126.299 81.9043 125.762 82.1425 125.201 82.3076C126.115 82.3825 127.738 81.8399 128.764 81.2955C130.977 79.9397 133.27 77.9436 133.759 75.2828C134.192 72.6719 132.82 70.1507 131.173 68.2156C130.904 67.8653 130.599 67.5436 130.264 67.2558C130.072 67.0502 129.806 66.9277 129.525 66.9147C129.285 66.9166 129.055 67.0128 128.886 67.1823C128.717 67.3518 128.622 67.5809 128.622 67.8198C128.892 69.1026 129.038 69.2035 128.988 70.3679C128.948 71.3926 128.344 73.6782 127.652 74.8835C127.1 75.6943 126.46 76.4425 125.744 77.1146C125.773 77.0116 125.804 76.9095 125.828 76.8052C126.33 74.2936 125.894 71.7524 124.182 69.7819C124.089 69.6717 123.989 69.5678 123.891 69.4621C123.676 68.0507 123.248 66.6798 122.621 65.396C122.662 66.5809 122.89 67.752 123.297 68.866C123.271 68.8415 123.246 68.8153 123.22 68.791C123.277 68.8977 123.33 68.9993 123.382 69.0989C123.568 69.5923 123.78 70.0756 124.017 70.5469C124.016 70.53 124.013 70.5133 124.012 70.4964L124.013 70.5002C124.47 71.8882 124.608 72.5892 124.501 73.978C124.427 74.8681 124.242 75.7455 123.949 76.5896C123.524 77.833 121.997 80.3349 121.027 82.2021C120.832 82.5706 120.684 82.962 120.586 83.3672C120.51 83.325 120.436 83.2836 120.361 83.2418C120.076 81.0781 119.227 79.0263 117.899 77.2903C117.947 77.9275 118.349 79.2049 118.627 80.0257C119.042 81.0967 119.547 82.131 120.137 83.1174C119.043 82.5028 118.084 81.8984 117.248 80.9193C117.228 80.891 117.206 80.8632 117.186 80.8348C116.83 80.3357 116.538 79.7942 116.316 79.223C115.789 77.6711 115.43 76.0676 115.245 74.4399C115.128 73.5629 114.896 72.1126 114.69 70.8623C114.995 71.1683 115.324 71.5035 115.696 71.8572C117.296 73.5271 118.676 74.558 119.637 76.351C120.078 77.2502 120.583 79.0867 120.769 80.4587C120.785 80.5811 120.799 80.7038 120.811 80.8266C120.888 80.3565 120.936 79.882 120.953 79.4059C121.126 75.934 120.274 74.2874 118.134 71.6502C117.474 70.8108 116.799 69.9817 116.074 69.1962C115.396 68.4609 114.661 67.6964 113.686 67.3752C113.649 67.3653 113.612 67.36 113.575 67.353C115.253 65.7428 116.23 63.5549 116.987 61.3906C117.117 61.0022 117.252 60.6142 117.383 60.2245C117.587 61.853 117.985 63.4513 118.57 64.9857C119.388 67.4324 121.676 68.8465 123.702 70.2333C122.576 68.8508 121.484 67.8454 120.705 66.4722C120.226 65.6517 120.112 65.2169 119.879 64.0921C119.632 62.8778 119.465 61.6488 119.38 60.4128C119.358 60.1085 119.337 59.8038 119.318 59.4988C120.603 60.4942 122.628 62.3737 123.365 63.3656C124.395 64.8503 124.548 65.9853 124.403 67.9382C124.359 68.3989 124.289 68.8568 124.192 69.3094C124.637 68.6434 125.188 66.9785 125.275 65.8679C125.494 63.823 124.416 61.9495 123.127 60.4446C122.382 59.4926 121.53 58.629 120.586 57.8708C120.032 57.4585 119.491 56.977 118.81 56.793C118.581 56.7323 118.341 56.7319 118.112 56.7919C118.093 55.677 117.614 54.5199 116.365 54.445C115.835 54.4176 115.345 54.6515 114.869 54.8555C113.917 55.2653 114.114 55.1864 113.548 55.4157C111.419 56.2256 109.262 56.9823 107.062 57.5791C103.996 58.2889 100.89 58.8168 97.7607 59.1599C95.3901 59.3329 94.1623 59.2247 92.2187 59.6043C90.2424 60.0796 89.4622 60.5308 87.6523 61.3803C86.184 62.1651 84.5363 62.9201 83.5876 64.3368C85.0845 60.5617 86.2276 60.5605 91.5035 58.6918C96.4334 56.835 101.328 54.2539 104.64 50.0594C106.401 47.8363 107.822 45.3657 108.856 42.7281C109.06 42.2324 109.253 41.7326 109.436 41.2288C109.468 41.2799 109.5 41.3315 109.533 41.3825C109.507 41.3109 109.482 41.2406 109.457 41.1695C109.589 40.8034 109.717 40.4356 109.836 40.0651C109.674 40.3172 109.508 40.5676 109.34 40.8163L109.334 40.8254C108.233 37.6855 107.674 34.8916 108.142 31.522C108.387 30.3298 109.316 26.6233 110.154 24.694C110.597 23.6005 111.776 21.1147 112.706 19.3155C113.401 18.0151 114.142 16.7392 114.825 15.4325C115.518 14.0939 116.153 12.727 116.76 11.3476C117.164 13.2754 117.253 14.704 117.399 17.1306C117.507 19.2762 117.502 21.4259 117.384 23.5709C117.172 26.7945 117.001 28.5042 116.169 31.5884C115.852 32.88 115.417 34.14 114.869 35.3524C114.369 36.2899 113.787 37.181 113.128 38.015C113.136 38.0049 113.143 37.9955 113.148 37.9885C112.74 38.5177 112.282 39.0072 111.782 39.4505C111.323 39.8514 110.827 40.2085 110.301 40.5171C110.266 40.538 110.232 40.5588 110.197 40.5796C110.236 40.5685 110.274 40.5575 110.313 40.5465C110.836 40.4017 111.344 40.2106 111.832 39.9754C113.463 39.1732 114.823 37.887 115.961 36.4913C117.664 34.1662 118.609 31.3435 119.118 28.5318C119.506 25.8378 119.7 23.1195 119.696 20.3978C119.715 17.7463 119.546 15.0967 119.192 12.4687C118.944 10.831 118.677 9.13841 117.885 7.66338C117.774 7.47239 117.609 7.31829 117.411 7.22045C117.212 7.12262 116.989 7.08542 116.769 7.11354C116.55 7.14166 116.343 7.23385 116.176 7.3785C116.009 7.52315 115.889 7.71381 115.83 7.92648C115.71 8.2161 115.588 8.50528 115.466 8.79402C115.301 9.18086 115.136 9.56706 114.968 9.95263C114.593 10.8272 114.194 11.6913 113.786 12.5511C112.552 15.1804 111.024 17.6616 109.826 20.3089C108.26 23.5442 106.484 27.8397 106.399 32.2408C106.443 33.8397 106.731 35.4228 107.252 36.9358C107.767 38.3416 108.439 39.6854 109.254 40.9422C107.853 43.0475 106.33 45.0695 104.693 46.9979C104.878 45.2137 104.749 43.3954 104.622 41.6126C104.285 38.579 103.608 35.5031 101.948 32.8956C100.942 31.3222 99.8365 29.8139 98.6387 28.3798C98.315 27.998 97.9979 27.6087 97.6377 27.26C97.6284 27.249 97.6197 27.2387 97.6096 27.2271C97.054 26.5488 96.0897 26.0897 95.4908 26.9908C95.2338 27.4085 95.4349 27.9 95.4618 28.3517C95.5501 29.0793 95.6356 29.8074 95.7025 30.5373C95.8754 32.4858 95.9051 34.4442 95.7913 36.397C95.6573 38.6904 95.5952 40.9968 96.0137 43.267C96.2361 44.6013 96.5014 45.9893 97.2837 47.1235C98.1122 48.444 99.2902 49.0417 100.829 49.1659C101.475 49.2088 102.124 49.1836 102.765 49.0905C101.611 50.2637 100.382 51.3621 99.0868 52.3789C98.3622 52.9699 95.7897 54.6262 93.6045 55.6384C90.9751 56.9058 90.6426 56.9089 88.2203 58.0048C86.9777 58.6217 85.6076 59.2053 84.6628 60.247C83.0466 62.07 82.9229 64.6153 82.6328 66.9249C82.2149 65.9549 81.995 65.0571 82.2444 64.0405C82.6572 62.0854 83.3752 60.8127 83.9987 59.3236C84.8664 57.4997 86.0817 54.7304 86.4967 53.645C87.4359 51.2829 88.4968 48.9521 89.0396 46.458C89.3744 45.0424 89.726 43.626 89.8714 42.1758C90.0117 40.7296 89.9974 39.2726 89.8288 37.8294C89.5737 35.7995 89.1987 33.6697 88.0147 31.9532C87.706 31.544 87.3637 31.1609 86.9914 30.8081C89.0452 29.6629 89.8651 27.0065 90.3156 24.844C90.8731 22.106 90.9796 19.296 90.6309 16.524C90.4411 14.4017 89.9984 12.3093 89.3121 10.2912C88.575 7.98185 87.6035 5.7574 86.6794 3.51833C86.3107 2.63759 85.8696 1.64548 85.7947 1.47568C85.5723 0.99169 85.3315 0.474302 84.8791 0.165287C84.656 0.032024 84.3946 -0.0233533 84.1363 0.00791358C83.878 0.0391805 83.6376 0.155307 83.453 0.337928C83.2457 0.594165 83.0981 0.893012 83.0208 1.21293C82.7958 1.86997 82.6012 2.53679 82.3806 3.19512C81.8873 4.63547 81.2915 6.03782 80.7093 7.44405C80.1364 8.89418 78.394 12.3268 78.184 14.9006C77.8863 16.9075 78.2472 18.9617 78.803 20.8946C79.4485 22.904 80.3587 24.8193 81.5096 26.5904C82.826 28.4713 84.7912 29.7536 86.5471 31.1906C85.2619 29.5104 84.0998 28.3051 83.0578 26.5402C82.4049 25.3097 82.3716 25.0611 81.7554 23.3241C80.4887 19.3701 79.7704 16.6946 80.7356 13.3843C81.3635 11.3396 81.7543 10.672 82.4721 8.94017C83.1894 7.27984 83.8721 5.60568 84.4747 3.9024C84.5411 4.06 84.6085 4.22224 84.6759 4.38505C84.5975 4.79061 84.5286 5.19798 84.4626 5.60569C84.1532 7.68842 83.9715 9.78901 83.8241 11.8887C83.6668 14.3897 83.5856 16.9106 83.8937 19.4035C84.1387 21.5564 84.5778 23.6831 85.2055 25.7577C85.612 27.3436 86.0664 28.9168 86.6148 30.46C86.472 30.3315 86.3275 30.205 86.1793 30.0831C86.2385 30.1657 86.2969 30.2489 86.3546 30.3327C86.4851 30.5194 86.602 30.6988 86.713 30.8752C86.6523 30.9198 86.5893 30.9613 86.5243 30.9995C86.5996 30.9802 86.6738 30.9569 86.7466 30.9296C87.9706 32.8991 88.0307 34.3005 88.0981 36.6189C88.0911 40.2966 87.7614 42.4674 86.9535 45.6667C86.8895 45.6222 86.8253 45.5781 86.7611 45.5338C86.747 45.2871 86.7314 45.0406 86.6973 44.7959C86.5341 43.8802 86.2728 42.9845 85.9179 42.1243C84.5574 38.3342 81.4691 35.3914 77.9923 33.4657C76.8327 32.783 75.6094 32.2138 74.3396 31.766C73.03 31.3949 71.6663 31.2495 70.3075 31.3362C69.7013 31.3999 69.0589 31.5336 68.6034 31.9644C68.405 32.1757 68.2653 32.4348 68.1978 32.7162C68.1304 32.9976 68.1376 33.2916 68.2188 33.5694C68.5631 34.4196 69.3813 34.9584 69.9727 35.6325C71.8422 37.5907 73.9427 39.3166 76.2283 40.7725C78.7303 42.3554 81.4388 43.5588 84.1812 44.6732C84.7314 45.0977 85.2749 45.5479 85.9174 46.0864C85.7079 45.7425 85.498 45.4214 85.2872 45.1183C85.7322 45.2957 86.1772 45.4721 86.6222 45.6476C86.67 45.8022 86.7176 45.9568 86.7669 46.1107C86.7812 46.141 86.7861 46.1851 86.817 46.2009C86.6511 46.8407 86.4672 47.5237 86.264 48.2685C85.0129 52.066 83.4926 55.7694 82.2018 59.5525C82.0501 60.0538 81.8875 60.567 81.7399 61.0871C81.5551 59.9799 81.31 58.8835 81.0058 57.8027C79.2982 52.0302 74.1508 46.743 68.2792 45.1732C65.4254 44.3187 62.2482 44.3281 59.5397 45.6531C58.2291 46.148 56.459 47.4047 57.2363 48.9862C57.6197 49.6852 58.3182 50.1512 58.8581 50.7254C60.267 52.1156 61.6329 53.5491 63.0796 54.9013C64.8252 56.6099 66.7082 58.1736 68.7096 59.5766C69.7224 60.3114 70.7112 61.0831 71.781 61.7358C74.7232 63.4995 77.9469 64.7463 81.2604 65.6201C81.286 65.6552 81.3124 65.6898 81.3359 65.7263C81.437 65.952 81.5365 66.1754 81.6345 66.3966C81.7152 66.7717 81.7983 67.1461 81.8881 67.519C81.8936 67.3504 81.9 67.1818 81.9066 67.0131C82.9817 69.4597 83.8844 71.6417 84.6449 73.4494C85.0193 74.3959 86.68 78.0688 87.2202 79.3046C87.9567 81.2285 88.5943 83.1885 89.1304 85.177C90.3809 89.9854 91.0705 93.3387 89.7239 97.8203C88.7469 101.31 86.9979 104.158 84.6971 107.532C82.3185 110.917 80.2533 113.693 77.1722 116.939C76.5968 117.531 76.0091 118.111 75.4091 118.678C74.8616 117.455 74.3876 116.289 73.8775 114.978C73.3461 113.721 72.8828 112.436 72.4897 111.13C71.524 107.571 70.8415 103.932 69.5868 100.455C67.6335 95.2868 64.5776 90.602 60.6298 86.7241C59.1491 85.4032 57.5732 84.192 55.9149 83.1003C54.8176 82.4595 53.678 81.8931 52.5041 81.405C53.2451 80.2963 53.8912 79.1274 54.4355 77.9109C55.2824 75.9165 55.8291 73.8086 56.058 71.6553C56.2141 69.2081 55.9942 66.7515 55.4059 64.3703C54.9311 62.6054 54.259 60.8991 53.4022 59.2835C53.6778 59.4032 53.9533 59.5479 54.4212 59.7703C55.6633 60.4373 56.8873 61.14 58.068 61.9104C59.2648 62.6833 59.6892 63.0468 61.1288 64.7118C61.0743 64.6417 61.0199 64.5716 60.9656 64.5015C61.6811 65.3941 62.2744 66.3774 62.7299 67.4255C63.0176 67.9831 63.8756 70.6369 63.8776 71.311C64.0012 73.6979 63.9304 74.7366 63.3061 76.8506C62.772 78.6678 62.2596 79.7413 61.0595 81.4736C60.58 82.1754 59.4821 83.2582 58.5386 84.0296C58.4877 84.0828 58.2672 84.2257 58.4414 84.1382C59.3265 83.7496 60.1714 83.2761 60.9642 82.7244C62.0833 81.8809 63.0568 80.8614 63.8464 79.7058C65.5144 77.1665 66.4351 74.0773 66.034 71.0397C65.8796 69.886 65.5819 68.7558 65.1478 67.6752C64.5071 65.8958 63.5263 64.2568 62.2598 62.8488C60.4273 60.7353 57.9122 59.3992 55.4721 58.1024C54.3813 57.6085 52.4185 56.5614 51.2743 57.1031C51.0602 57.225 50.8925 57.414 50.7975 57.6407C50.7024 57.8673 50.6853 58.1189 50.7488 58.3563C51.4051 59.9904 52.5222 61.8134 53.1267 63.8211C53.9392 66.4309 54.0168 67.856 54.1981 70.62C54.3625 74.2807 53.7151 77.9325 52.3021 81.3159C49.8536 80.2367 48.5941 79.8395 46.4277 78.7874C43.4174 77.23 40.4698 75.5382 37.6176 73.7087C36.8935 73.2321 36.2288 72.788 35.5993 72.3566C36.2038 72.3157 36.7998 72.192 37.3704 71.9891C40.5668 70.951 42.8513 68.1174 43.9534 65.0389C44.6837 62.8108 44.8572 60.439 44.4591 58.129C44.1442 55.9767 43.5041 53.8843 42.5607 51.9228C41.172 49.3296 39.4426 46.9322 37.4181 44.794C36.5691 43.9647 34.8218 41.9384 33.5776 42.2055C33.3565 42.2684 33.1639 42.4049 33.0317 42.5922C32.8996 42.7795 32.836 43.0063 32.8516 43.2347C32.872 43.4793 32.9384 43.718 33.0474 43.9382C33.0644 43.9802 33.0811 44.0204 33.0962 44.0564C33.3263 44.6416 33.5301 45.2367 33.7247 45.8345C34.2109 47.356 34.5876 49.1648 34.655 50.0397C35.0384 53.9731 33.9415 57.7386 32.0223 61.1214C31.448 62.1403 30.8023 63.1177 30.0901 64.0462C29.5952 64.6616 28.8689 65.4589 28.2031 66.1911C26.769 64.6173 25.9113 63.3705 24.6073 61.2544C23.5188 59.3669 23.2468 58.651 22.6007 56.7155C22.0968 55.1746 21.7207 53.5952 21.4763 51.993C21.4189 51.3474 21.3734 50.7012 21.349 50.0534C21.2988 48.3967 21.3643 46.7372 21.4467 45.0824C21.5945 42.8475 21.8596 40.6216 22.0976 38.3948C22.2661 36.7077 22.5164 35.3348 22.8082 33.3898C21.8031 35.5792 20.9967 37.8538 20.3989 40.1864C19.5842 43.0534 19.1695 46.0185 19.1664 48.9981C18.8189 48.5987 18.4752 48.1961 18.1469 47.7808C17.1555 46.4841 15.6807 44.409 14.6347 42.7436C13.9122 41.599 13.1481 40.4708 12.5908 39.2339C12.4855 39.0934 11.9269 37.488 11.6945 36.5696C11.5178 35.8352 11.384 35.0912 11.2937 34.3414C10.9952 31.1988 11.602 29.3234 11.9277 26.2986C12.2591 23.7977 12.5399 21.2904 12.7542 18.7768C12.9146 16.8508 13.1202 14.9195 13.0115 12.9849C12.9603 11.8482 12.8012 10.7188 12.5363 9.612C12.5881 9.61314 12.64 9.61524 12.6916 9.61949C12.8159 9.64006 12.9389 9.66756 13.06 9.70187C14.8483 10.3256 16.8028 12.1362 18.6925 14.1424C20.9707 16.6337 22.3476 18.2418 24.1223 21.1271C25.7812 23.9027 26.5116 25.7777 27.1226 29.0682C27.3428 30.2335 27.6492 33.2436 27.3444 35.3424C27.1034 37.3348 27.2136 36.9244 26.865 38.7298C26.5773 39.7289 26.2265 40.7089 25.8146 41.6638C25.3958 42.5965 24.9069 43.4963 24.3519 44.3556C23.6689 45.3883 23.1117 46.1618 22.1316 47.043C21.9266 47.2203 21.7158 47.3907 21.4993 47.5542C21.6616 47.4885 21.823 47.4203 21.9817 47.3464C23.2231 46.7858 24.2843 45.8915 25.2316 44.9281C26.5967 43.5065 27.6978 41.8549 28.4837 40.0502C29.0847 38.7461 29.2774 37.307 29.4827 35.899C29.9509 32.4041 29.4212 28.8389 28.4528 25.4694C27.1705 21.6143 24.8618 18.2006 22.2085 15.1501C20.0072 12.6955 15.9984 8.14884 12.6339 7.79867C10.9713 7.74865 10.3894 8.89866 10.6359 9.69073C10.7564 10.3412 10.8706 10.993 10.9654 11.6478C11.1659 13.4795 11.1745 15.3269 10.991 17.1604C10.6495 22.4822 9.90137 27.453 9.42196 31.5804C9.20718 34.7806 9.87636 37.9783 11.3569 40.8266C12.8675 43.2905 14.7773 45.4998 16.8218 47.5385C17.5639 48.2658 18.3491 48.9483 19.1731 49.5822C19.1925 50.5019 19.2516 51.4214 19.3572 52.338C19.7625 55.2466 20.5939 58.0802 21.8248 60.7486C23.1951 63.4537 24.9396 65.9541 27.0073 68.1767C27.0986 68.2727 27.1928 68.3657 27.2857 68.4601C24.2254 66.7169 20.9404 65.4333 17.5944 64.345C13.9271 63.0963 10.186 62.0275 6.33952 61.5001C5.10356 61.3415 3.86949 61.1529 2.62876 61.0347C1.79271 61.0312 0.517046 60.6617 0.0939148 61.6176C-0.219705 62.3142 0.309534 62.862 0.835722 63.2538C1.19324 63.5463 1.53839 63.8536 1.88492 64.1589C3.14154 65.27 4.37516 66.4065 5.6085 67.5431C7.82616 69.6116 10.1873 71.5368 12.8013 73.0898C15.4231 74.5019 18.197 75.709 21.1232 76.3247C25.6845 77.372 28.6447 76.6411 32.704 74.4668C28.1836 75.5458 25.9127 75.7606 21.5423 74.377C19.2283 73.7192 16.9796 72.8517 14.8244 71.7856C13.0101 70.8181 11.2985 69.6707 9.71564 68.3607C7.67229 66.6532 5.75846 64.7988 3.74619 63.0556C4.09082 63.0999 4.43513 63.1469 4.77935 63.1913C4.69486 63.18 4.61037 63.1687 4.52588 63.1574C6.80499 63.4303 9.06261 63.8586 11.2829 64.4393C17.4355 66.1363 24.1946 68.8476 29.6556 71.0012C30.014 71.156 30.3733 71.3161 30.7287 71.4853C31.0082 71.7069 31.2886 71.9273 31.5699 72.1463C35.8259 75.4389 40.4882 78.1792 45.2511 80.6742C47.5128 81.775 49.621 82.5249 51.2827 83.2753C52.2495 83.6999 53.214 84.1324 54.1436 84.6339C55.0485 85.1692 55.9222 85.7553 56.7606 86.3891C58.1252 87.3768 59.3874 88.4978 60.5284 89.7353C62.4605 91.7997 63.3737 93.0183 64.9628 95.4353C65.8432 96.8257 67.3676 99.9727 67.6065 100.59C68.9276 103.832 69.4505 107.321 70.6628 110.598C71.2402 112.219 71.9946 113.772 72.9125 115.23C73.6349 116.464 74.41 117.669 75.2509 118.827C73.7493 120.243 72.1844 121.588 70.5561 122.863C68.903 124.171 65.6064 126.545 63.4487 128.558C61.5276 130.36 59.7602 132.317 58.1648 134.411C57.3461 135.499 56.718 136.717 56.307 138.014C55.0631 141.89 55.3135 146.952 56.6064 150.787C57.1274 152.371 57.847 153.884 58.7483 155.289C59.4724 156.273 60.2963 157.18 61.2068 157.996C60.6939 157.887 60.1778 157.791 59.6576 157.713C57.4474 157.315 53.2783 157.381 50.4336 158.178C53.8282 158.218 55.9264 158.599 59.3355 159.329C62.0272 159.897 64.7559 160.274 67.501 160.458C68.1459 160.49 68.7918 160.457 69.4367 160.481C69.1303 160.368 68.8214 160.263 68.5099 160.164C66.2341 159.408 63.958 158.613 61.617 158.085C60.6878 156.748 59.7433 155.184 59.3798 154.105C58.0884 150.183 57.9088 148.389 57.6484 144.924C57.5051 141.383 57.6733 138.73 59.4061 135.936C60.9859 133.589 63.2666 131.138 65.8625 128.905C69.9996 125.526 73.9783 122.997 78.1684 118.702C80.8352 116.022 83.1356 113.007 85.3858 109.979C87.7503 106.747 90.2516 102.862 91.2964 99.8352C91.6275 98.9488 91.9033 98.0428 92.1221 97.1224C93.9048 95.2203 95.5101 93.5067 97.8258 92.5003C99.3066 91.7595 102.564 91.3304 105.318 91.2895C106.46 91.2648 107.604 91.2689 108.748 91.263C107.359 100.383 107.112 109.64 108.011 118.821C107.801 118.745 107.59 118.668 107.379 118.593C107.595 118.747 107.813 118.895 108.031 119.045C108.033 119.064 108.035 119.083 108.037 119.103C108.048 119.221 108.059 119.34 108.07 119.459C108.082 119.338 108.093 119.217 108.105 119.096C108.84 119.597 109.587 120.08 110.341 120.553C110.761 120.831 111.186 121.101 111.612 121.371C111.616 121.373 111.619 121.374 111.623 121.376C111.628 121.419 111.632 121.463 111.638 121.506C111.641 121.467 111.645 121.428 111.648 121.389C111.727 121.424 111.815 121.437 111.901 121.425C111.987 121.413 112.068 121.377 112.135 121.321C112.201 121.265 112.251 121.192 112.277 121.11C112.304 121.027 112.307 120.939 112.286 120.855C112.256 120.775 112.21 120.702 112.152 120.64C112.093 120.578 112.023 120.528 111.945 120.492C111.877 120.444 111.808 120.397 111.738 120.35C112.156 115.716 112.738 111.093 112.854 106.437C113.093 101.337 112.86 96.2366 112.742 91.1373C113.291 91.0975 113.839 91.0463 114.386 90.9762C120.544 90.3023 126.673 88.6719 132.104 85.6532C133.736 84.6936 135.276 83.5863 136.704 82.3452C137.635 81.5859 138.521 80.7716 139.355 79.9068C141.696 77.3471 143.492 74.3445 144.896 71.1871C145.327 70.1877 145.754 69.1835 146.137 68.1638C147.185 67.6862 148.074 67.2484 149.25 66.9529C151.363 66.4891 153.536 66.3287 155.619 65.7158C158.451 64.9264 163.706 63.1354 165.082 60.4314C165.212 60.1632 165.312 59.8822 165.382 59.593C165.131 60.0158 164.81 60.3924 164.43 60.7063V60.7063ZM123.189 24.4552C123.344 22.6346 123.716 20.8389 124.298 19.1062C124.908 17.4008 126.008 15.236 127.016 12.987C127.428 12.0792 127.974 10.841 128.487 9.61347C128.77 12.9012 128.856 16.2032 128.868 19.5024C128.913 23.306 128.733 25.603 128.192 28.2294C127.647 31.2384 126.579 33.6528 124.858 35.8868C124.624 36.206 124.319 36.4672 123.968 36.6503C124.274 34.2557 124.88 31.8181 125.541 29.4259C125.959 27.8814 126.509 26.3741 126.854 24.8099C127.476 21.7902 127.541 18.6892 127.568 15.6166C127.568 15.4328 127.567 15.249 127.565 15.0653C127.557 15.1046 127.548 15.1437 127.539 15.183C127.017 17.4572 126.561 19.7454 126.059 22.0237C125.637 24.1468 124.882 26.1829 124.397 28.29C124.025 30.0164 123.791 31.7696 123.699 33.533C122.641 30.6235 122.87 27.4785 123.189 24.4552ZM123.696 35.7573C123.711 36.0853 123.733 36.413 123.763 36.7403C123.705 36.7625 123.646 36.783 123.584 36.8016C123.621 36.4531 123.658 36.1051 123.696 35.7573ZM133.578 62.8325C131.258 62.2357 129.185 60.9801 126.993 59.4003C124.377 57.482 122.742 56.2335 120.212 54.1123C119.019 53.1202 117.852 52.0954 116.663 51.0983C118.971 51.9185 121.028 53.0978 123.566 54.394C125.151 55.2237 126.769 55.9893 128.338 56.8499C130.432 58.0534 132.793 59.482 134.446 60.7943C135.225 61.3605 135.836 62.1255 136.214 63.0087C136.241 63.0654 136.267 63.1222 136.293 63.1789C135.382 63.1238 134.475 63.0081 133.578 62.8325V62.8325ZM98.6684 46.7994C97.9396 45.5151 97.9323 44.5026 97.7693 42.8514C97.3875 39.2252 97.9575 35.5912 97.7626 31.961C97.734 31.3508 97.6854 30.7421 97.6287 30.1341C97.7967 30.3401 97.9552 30.5392 98.086 30.7102C98.6964 31.4872 100.363 33.6589 101.106 35.3023C102.099 37.163 103.26 41.1843 103.945 44.6003C104.15 45.4941 104.309 46.3979 104.42 47.3081C104.157 47.6075 103.887 47.9032 103.614 48.1969C103.055 45.809 102.354 43.4555 101.71 41.0895C100.993 38.8896 100.202 36.1719 99.5216 34.2296C99.4905 39.7175 100.967 43.5959 103.536 48.28C103.381 48.4461 103.226 48.6125 103.068 48.7768C101.126 48.5306 99.3068 48.1497 98.6684 46.7994L98.6684 46.7994ZM86.6896 30.5287C86.5521 28.888 86.4699 27.2436 86.3722 25.6004C86.2569 24.1759 86.1003 22.7542 86.0277 21.3265C85.8439 16.0851 85.5548 10.8456 84.893 5.63989C84.8609 5.31833 84.8273 4.99684 84.7956 4.67518C85.0068 5.18872 85.2178 5.70934 85.4139 6.18721C86.5069 8.81933 87.5083 11.5069 88.0865 14.3028C88.5162 16.9821 88.7569 19.6881 88.8069 22.4009C88.7835 24.6289 88.8137 26.4294 88.264 28.3099C88.0475 29.1645 87.6261 29.9541 87.0357 30.6107C86.9944 30.6516 86.9483 30.6874 86.9042 30.7255C86.8337 30.6588 86.7613 30.5941 86.6896 30.5287ZM84.3826 43.936C82.478 41.6796 80.4058 40.5844 77.6355 38.6509C76.9677 38.1384 76.35 37.5642 75.7906 36.936C75.4887 36.6068 75.1918 36.2732 74.8999 35.9351C74.9661 36.0999 75.0334 36.2646 75.1031 36.4281C75.3278 36.971 75.588 37.4986 75.882 38.0076C75.187 37.4661 74.446 36.8685 73.6147 36.156C72.6019 35.2633 71.6637 34.2924 70.7158 33.3324C70.8416 33.332 71.0188 33.3335 71.3145 33.3254C73.6319 33.3381 75.339 34.1602 77.8812 35.6229C79.2101 36.3796 80.454 37.2755 81.5918 38.2955C83.0959 39.6278 83.7434 40.4004 84.5753 41.6006C85.1909 42.4823 85.7282 43.4157 86.181 44.3902C86.1829 44.3947 86.1701 44.3645 86.1647 44.3518C86.241 44.5202 86.2179 44.4836 86.3095 44.707C86.3932 44.9289 86.4674 45.1541 86.5388 45.3803C85.8255 44.8909 85.1052 44.4118 84.3826 43.936ZM86.7949 46.0601C86.7852 45.9424 86.7779 45.8245 86.7711 45.7066C86.8234 45.7273 86.8756 45.748 86.9279 45.7687C86.8933 45.9047 86.858 46.0426 86.8218 46.1823C86.7961 46.1646 86.8008 46.0882 86.7949 46.0601V46.0601ZM73.1058 60.2742C72.9512 60.175 71.3044 58.8337 70.4935 58.1655C69.7458 57.5727 68.9605 57.0299 68.2048 56.4476C66.115 54.9335 62.0896 50.7584 59.4579 48.2075C59.6338 48.0853 59.8191 47.9772 60.012 47.884C60.4509 47.6576 60.9044 47.4601 61.3694 47.2931C62.9123 46.8465 63.0965 46.8285 64.3974 46.8054C65.7548 46.8316 66.2046 46.9152 67.8708 47.3747C70.2331 48.03 72.0379 49.1774 73.677 50.6191C75.5505 52.2917 76.2157 53.2039 77.4556 55.1118C78.3679 56.5435 79.1243 58.0681 79.712 59.6597C80.1521 60.725 80.5279 61.8156 80.8373 62.9257C80.975 63.4151 81.0923 63.9095 81.2039 64.4051C79.9797 61.8606 78.6822 59.3305 76.9698 57.0775C75.3537 55.2152 73.3715 53.6849 71.3467 52.2877C69.585 51.1491 67.6666 50.2839 65.7454 49.4511C64.8257 49.0834 63.8773 48.7914 62.9097 48.578C62.7557 48.5287 62.978 48.6349 63.0223 48.6678C64.3124 49.3929 65.5473 50.2112 66.7172 51.1161C69.0558 52.7621 70.48 53.7744 72.4784 55.5413C73.5199 56.4685 74.6612 57.2811 75.6597 58.2565C77.6496 60.3851 79.4943 62.6432 81.3079 64.9219C81.3445 65.1734 81.3997 65.4218 81.4731 65.6653C78.5774 64.038 75.7832 62.2377 73.1058 60.2742V60.2742ZM81.4222 65.7323C81.3946 65.697 81.3627 65.6653 81.3272 65.6378C81.377 65.6509 81.4267 65.6645 81.4765 65.6774C81.4838 65.7012 81.4888 65.7251 81.4965 65.7488L81.4972 65.7505C81.5046 65.7857 81.5121 65.8208 81.5195 65.856C81.4869 65.8148 81.4549 65.7733 81.4222 65.7323V65.7323ZM33.9743 71.2097C33.2495 70.6808 32.5553 70.1453 31.8538 69.5715C34.6233 67.4595 37.4732 65.008 38.4227 61.5412C38.8739 59.8709 38.9617 58.1239 38.6804 56.417C38.63 56.1244 38.5691 55.8339 38.4976 55.5455C38.4349 56.1185 38.3555 56.6181 38.251 57.2161C37.9069 59.042 37.3322 60.8171 36.5405 62.4991C35.257 65.1335 33.5019 67.3301 31.7912 69.5204C30.956 68.8349 30.1087 68.0925 29.1838 67.229C28.8598 66.8969 28.5665 66.5869 28.2918 66.2878C29.326 65.5064 30.3047 64.6547 31.2209 63.7388C33.2264 61.5816 34.7634 59.3876 35.8173 56.4036C36.9409 52.9794 36.7881 49.2507 35.7195 45.8248C35.9448 46.0758 36.1736 46.3331 36.4049 46.5866C37.7669 48.2165 37.791 48.2443 39.1053 50.2378C39.7525 51.2821 40.4272 52.32 40.9143 53.4506C41.3348 54.3647 42.2476 57.3733 42.4188 59.322C42.4057 59.2246 42.3926 59.1272 42.3794 59.0298C42.4195 59.4083 42.4473 59.7879 42.4504 60.1685C42.428 61.3899 42.4156 61.777 42.3099 62.4291C41.9252 64.5557 41.5718 65.2221 40.4533 67.0656C39.1581 69.0252 37.7075 70.3577 35.3825 71.0927C34.9229 71.2095 34.4469 71.2491 33.9743 71.2097V71.2097ZM82.6531 66.9714C82.7331 66.7296 82.8101 66.5004 82.8857 66.2774C82.8236 66.5425 82.764 66.8082 82.6991 67.0716C82.6843 67.0385 82.6675 67.0043 82.6531 66.9714ZM111.249 106.462C111.133 109.604 111.073 112.761 111.197 115.908L111.196 115.906C111.185 115.898 111.172 115.892 111.159 115.889C111.145 115.886 111.131 115.885 111.117 115.887C111.115 115.887 111.114 115.884 111.111 115.885C111.022 115.887 110.933 115.892 110.844 115.898C110.84 115.892 110.838 115.885 110.838 115.878C110.837 115.871 110.839 115.864 110.843 115.857C110.83 115.868 110.822 115.883 110.819 115.899L110.811 115.899C110.73 115.678 110.163 116.01 110.009 116.058C110.189 116.048 110.367 116.012 110.546 115.992C110.546 116.004 110.548 116.017 110.554 116.028C110.56 116.044 110.571 116.057 110.585 116.066C110.599 116.076 110.616 116.081 110.633 116.081C110.788 116.071 110.942 116.048 111.093 116.014C111.133 116.013 111.171 115.997 111.2 115.97C111.256 117.377 111.349 118.781 111.491 120.182C111.043 119.895 110.577 119.636 110.111 119.38C110.026 119.318 109.941 119.257 109.854 119.199C109.688 119.098 109.517 118.949 109.311 118.962C109.24 118.962 109.169 118.982 109.109 119.022C109.049 119.061 109.003 119.117 108.974 119.183C108.693 119.074 108.41 118.967 108.127 118.863C108.13 118.834 108.133 118.804 108.136 118.775C108.244 117.617 108.345 116.458 108.436 115.298C108.68 112.196 108.924 109.092 109.079 105.984C109.268 101.078 109.092 96.1673 108.962 91.2616C110.184 91.2537 111.406 91.23 112.624 91.1457C111.898 96.2212 111.485 101.342 111.249 106.462ZM111.534 89.2974C106.562 89.6369 101.053 88.7748 96.6817 91.6777C94.7431 92.9944 93.3844 94.9508 92.1689 96.9203C93.0509 92.9892 92.5658 89.5668 91.4485 85.2644C90.7835 82.794 90.0568 80.3273 89.0497 77.9711C88.0408 75.7342 86.783 73.6151 85.5225 71.5117C84.7759 70.2849 83.9655 69.1005 83.1156 67.9443C82.9785 67.6705 82.8522 67.4079 82.7349 67.1496C83.081 66.4061 83.4393 65.5324 83.8366 64.9497C84.5199 64.111 85.6249 63.5933 86.5756 63.2345C88.4354 62.5638 90.336 61.9503 92.2895 61.6199C93.7861 61.4498 95.2974 61.4902 96.8003 61.4186C98.4976 61.3244 100.187 61.1253 101.86 60.8226C103.895 60.4934 105.932 60.1456 107.934 59.6513C110.641 58.8809 113.295 57.9368 115.879 56.8248C115.878 56.9694 115.869 57.1139 115.853 57.2576C115.821 57.4461 115.747 57.8875 115.704 58.0344C115.667 58.1883 115.623 58.3404 115.581 58.4929C114.466 59.1338 113.299 59.684 112.157 60.2741C110.247 61.2416 108.078 62.3281 106.697 62.8199C104.54 63.6289 102.291 64.1667 100 64.4206C97.546 64.5696 95.0894 64.2431 92.6331 64.3341C90.8748 64.4556 89.1019 64.5942 87.3881 65.0225C85.9305 65.4155 84.5787 66.1005 83.241 66.7837C84.6888 66.3605 86.3923 65.8756 87.6209 65.7781C90.4747 65.5955 93.3264 65.9606 96.1629 66.2314C98.188 66.4526 100.234 66.3879 102.241 66.0392C103.682 65.8404 105.093 65.4705 106.445 64.9374C109.017 63.9969 111.607 62.1166 113.493 60.6502C114.149 60.1493 114.797 59.6333 115.409 59.0783C115.231 59.6472 115.034 60.2107 114.844 60.7752C114.259 62.4039 114.042 62.9937 112.966 64.6697C112.069 65.9414 110.624 67.0685 108.61 68.1712C106.973 69.094 104.543 69.8561 102.588 69.9307C100.656 70.0097 98.7196 69.9357 96.7987 69.7095C94.907 69.5564 93.0288 69.2685 91.1784 68.8479C88.8876 68.3063 86.6435 67.5749 84.3284 67.1334C84.082 67.0863 83.8358 67.038 83.5899 66.9883C83.7365 67.0615 83.8832 67.1347 84.0309 67.2059C86.9944 68.6148 89.8401 70.3365 93.034 71.1938C94.902 71.6863 96.8151 71.9904 98.7442 72.1013C100.494 72.2169 102.257 72.256 103.997 72.0056C105.348 71.8356 106.668 71.4738 107.917 70.9312C109.396 70.3445 110.791 69.5658 112.066 68.6153C112.067 68.7253 112.08 68.8349 112.105 68.9421C112.286 69.965 112.467 70.9878 112.628 72.0141C113.072 74.8177 113.541 77.7019 115.026 80.1738C116.261 82.2773 118.32 83.0702 120.525 83.6373C120.442 84.0616 120.393 84.4919 120.379 84.924C120.326 85.9093 120.351 86.8961 120.383 87.8817C117.482 88.6151 114.52 89.0889 111.534 89.2974V89.2974ZM129.077 52.0785C129.761 50.8794 130.316 49.6123 130.735 48.2978C131.391 45.8305 131.69 43.2804 132.358 40.8158C133.208 37.9212 133.959 36.3471 135.738 34.3499C135.747 34.3386 135.757 34.3272 135.766 34.3159C135.967 38.1557 135.712 42.0057 135.007 45.7861C134.727 47.1161 134.486 48.4663 133.964 49.7278C133.689 50.3714 133.354 50.9879 132.964 51.5691C132.657 52.0367 132.275 52.4511 131.834 52.7958C131.506 53.0307 131.158 53.2357 130.794 53.4081C130.199 52.9599 129.646 52.5353 129.077 52.0785V52.0785ZM144.894 64.7263C144.07 67.7222 142.881 70.6068 141.356 73.3164C141.431 72.294 141.444 71.2682 141.395 70.2443C141.34 68.9125 141.265 67.5691 140.952 66.2691C140.604 64.828 140.102 63.4287 139.452 62.0954C138.941 61.0002 138.388 59.9203 137.602 58.9913C136.308 57.505 134.702 56.3306 133.127 55.1594C132.433 54.6352 131.828 54.1849 131.27 53.766C131.382 53.7374 131.494 53.7065 131.605 53.6712C132.382 53.4288 133.092 53.0097 133.678 52.4471C135.115 51.1224 136.051 49.36 136.633 47.5157C137.465 45.1769 137.78 42.7015 137.939 40.2362C138.074 38.2656 138.098 36.2891 138.013 34.3158C138.2 35.3049 138.423 36.2879 138.703 37.2612C139.399 40.0163 141.085 43.6571 142.524 45.4266C143.178 46.308 143.937 47.1079 144.783 47.8092C145.285 48.1693 145.811 48.496 146.356 48.7872C146.331 50.2162 146.282 51.6449 146.24 53.0733C146.161 55.409 145.957 57.7387 145.627 60.0525C145.336 62.1207 145.371 62.6998 144.894 64.7263V64.7263Z" fill="black"/>
<path d="M113.148 37.9886C113.15 37.9854 113.153 37.9823 113.156 37.979C113.158 37.9754 113.154 37.9804 113.148 37.9886Z" fill="black"/>
<path d="M116.385 13.8605C116.385 13.7987 116.385 13.7369 116.385 13.6753C116.275 14.0941 116.16 14.512 116.047 14.9301C115.765 16.0377 115.427 17.1302 115.033 18.2031C114.259 20.3998 113.293 22.5323 112.713 24.7929C112.051 27.1056 111.806 29.5029 111.325 31.8531C110.654 34.7641 109.867 37.6488 109.375 40.5986C110.511 37.5575 111.63 35.1483 112.722 32.2094C113.493 29.9617 113.967 27.626 114.532 25.3215C115.013 23.2257 115.668 21.17 116.012 19.044C116.317 17.3338 116.442 15.5965 116.385 13.8605V13.8605Z" fill="black"/>
<path d="M129.407 59.0699C128.177 58.3861 126.928 57.7344 125.639 57.1685C125.427 57.0741 125.216 56.977 125.005 56.8794C125.041 56.9124 125.076 56.9457 125.111 56.9787C128.44 60.1044 130.928 61.4301 135.352 62.5503C133.399 61.3434 131.412 60.1887 129.407 59.0699Z" fill="black"/>
<path d="M131.102 52.6721C132.091 51.1952 132.943 49.6309 133.645 47.9989C134.231 46.4944 134.658 44.9335 134.919 43.3413C133.166 46.0172 131.867 49.4337 131.102 52.6721Z" fill="black"/>
<path d="M199.91 47.9378C199.38 47.758 198.865 48.0154 198.5 48.3964C198.137 48.7145 197.786 49.045 197.41 49.3483C196.795 49.911 194.9 51.0986 193.376 51.7721C193.266 51.8223 193.154 51.8701 193.042 51.9187C191.635 52.5122 190.165 52.9489 188.661 53.221C186.914 53.5663 186.113 53.5971 183.534 53.6325C182.098 53.6388 180.66 53.5942 179.227 53.7084C177.814 53.799 176.416 54.0342 175.021 54.2638C176.921 54.3189 179.509 54.4716 180.904 54.7178C182.918 55.0316 184.938 55.4027 186.982 55.4239C188.409 55.4014 189.828 55.2094 191.209 54.8522C194.105 53.9972 196.294 53.0241 198.87 50.9027C198.841 51.1314 198.795 51.3003 198.689 51.8299C198.514 52.5317 198.267 53.2136 197.952 53.8648C197.722 54.3837 197.434 54.8755 197.095 55.331C196.937 55.5305 196.741 55.7917 196.269 56.341C195.409 57.3136 194.836 57.8221 194.251 58.181C192.646 59.0965 191.908 59.3673 189.859 59.93C188.233 60.3324 187.936 60.4398 186.59 60.5036C184.22 60.5755 183.198 60.4112 181.203 60.0644C178.666 59.7152 176.218 59.0559 173.743 58.4228C172.446 58.0681 171.486 57.8269 170.455 56.9589C170.25 56.779 170.052 56.5913 169.857 56.4003C170.934 56.0578 171.989 55.6486 173.014 55.1749C175.062 54.1572 176.874 52.7247 178.499 51.1301C179.758 49.9278 180.905 48.6136 181.924 47.2038C182.497 46.4255 183.043 45.6277 183.551 44.8056C183.484 44.8681 183.416 44.9307 183.349 44.9932C181.453 46.771 179.442 48.4225 177.328 49.9371C175.466 51.3391 173.462 52.5427 171.348 53.528C169.704 54.2296 167.99 54.7541 166.235 55.0926C164.426 55.4096 163.35 55.4905 161.141 55.6184C160.161 55.7004 159.151 55.772 158.246 56.187C156.078 57.209 154.852 59.3848 153.609 61.3197C154.597 60.3111 155.543 59.2518 156.654 58.3732C157.436 57.7681 158.713 57.2285 159.204 57.2444C161.054 57.1641 162.9 57.5066 164.753 57.3722C166.47 57.2625 168.168 56.9413 169.807 56.4162C169.821 56.4406 169.835 56.465 169.849 56.4894C170.907 58.546 173.18 59.4039 175.18 60.2969C176.804 61.0596 178.505 61.6456 180.255 62.0448C182.628 62.6757 185.094 62.8812 187.538 62.6518C188.759 62.5318 189.939 62.2066 191.116 61.8813C192.741 61.4066 194.352 60.7717 195.76 59.8253C197.084 58.8811 198.128 57.6203 199.087 56.3239C199.779 55.2284 200.306 54.038 200.651 52.7905C200.903 51.4553 201.576 48.5307 199.91 47.9378Z" fill="black"/>
<path d="M180.064 46.8574C179.009 46.8835 179.012 48.4227 180.064 48.4516C181.119 48.4255 181.116 46.8863 180.064 46.8574Z" fill="black"/>
<path d="M191.025 23.2408C190.548 21.7724 190.132 20.2659 189.427 18.8859C189.013 18.0547 188.004 17.6112 187.257 18.3281C186.54 19.2166 185.857 20.1336 185.184 21.0551C183.96 22.7428 182.678 24.3943 181.583 26.1701C180.688 27.7092 179.903 29.3092 179.233 30.9581C178.348 33.4063 177.834 35.9721 177.708 38.5711C177.692 40.8875 178.048 43.1907 178.49 45.4594C178.603 43.1292 178.802 40.4337 179.12 38.6538C179.492 36.9384 179.968 35.2471 180.545 33.5889C181.38 31.2255 181.471 31.081 182.728 28.6194C184.184 25.9128 186.15 23.5197 187.948 21.0358C187.998 21.1759 188.061 21.3481 188.151 21.5759C189.387 25.1639 190.038 27.6837 190.154 31.0848C190.192 32.796 189.908 33.7562 189.352 35.8109C189.168 36.7744 187.577 39.2598 187.015 39.9221C185.826 41.4496 183.664 43.4536 182.571 44.3348C181.793 44.9918 180.226 45.8694 178.938 46.4186C178.892 46.4402 178.846 46.4616 178.801 46.483C178.868 46.4709 178.936 46.4593 179.004 46.4474C180.111 46.2562 181.225 46.0472 182.261 45.5979C183.759 44.9848 185.119 44.0793 186.411 43.1172C188.459 41.5771 190.245 39.5812 191.219 37.1946C191.882 35.3918 192.274 33.5014 192.383 31.5846C192.328 28.7535 191.871 25.9444 191.025 23.2408V23.2408Z" fill="black"/>
<path d="M188.175 27.1344C187.54 28.5747 186.968 30.1682 186.51 31.1415C185.784 32.6375 184.963 34.0863 184.216 35.5723C183.442 37.093 182.723 38.6405 181.96 40.1667C180.996 42.0705 180.204 43.4918 179.434 45.6161C180.961 43.5809 182.897 41.6371 184.314 39.4068C185.882 37.0552 187.086 34.4821 187.886 31.7738C188.304 30.1389 188.461 28.4509 188.672 26.7806C188.709 26.4389 188.743 26.0968 188.772 25.7543C188.574 26.2144 188.373 26.6741 188.175 27.1344Z" fill="black"/>
<path d="M96.3082 11.1076C95.2533 11.1336 95.2561 12.6728 96.3082 12.7017C97.3631 12.6756 97.3604 11.1365 96.3082 11.1076Z" fill="black"/>
<path d="M68.5993 17.0659C67.5444 17.0919 67.5472 18.6311 68.5994 18.66C69.6543 18.634 69.6515 17.0948 68.5993 17.0659Z" fill="black"/>
<path d="M117.09 42.1535C116.035 42.1796 116.038 43.7187 117.09 43.7476C118.145 43.7216 118.142 42.1824 117.09 42.1535Z" fill="black"/>
<path d="M186.537 57.964C185.018 58.0887 183.488 58.219 181.964 58.1243C181.453 58.1274 178.183 57.5827 177.627 57.5183C175.539 57.2308 173.776 57.11 172.586 56.8932C170.729 56.5431 168.886 56.1123 166.997 55.9648C169.217 56.7095 171.203 57.885 173.502 58.5496C176.288 59.2739 179.179 59.8365 182.069 59.6612C183.872 59.4925 185.603 58.8892 187.272 58.2145C187.59 58.0851 187.905 57.9492 188.217 57.8067C187.658 57.8661 187.097 57.9157 186.537 57.964Z" fill="black"/>
<path d="M92.2148 46.8574C91.1599 46.8835 91.1627 48.4227 92.2148 48.4516C93.2697 48.4255 93.267 46.8863 92.2148 46.8574Z" fill="black"/>
<path d="M78.9902 46.8574C77.9353 46.8835 77.9381 48.4227 78.9902 48.4516C80.0451 48.4255 80.0424 46.8863 78.9902 46.8574Z" fill="black"/>
<path d="M60.968 69.6466C60.9279 69.4452 60.8673 69.2484 60.7871 69.0593C60.7725 69.4853 60.7287 69.9098 60.6561 70.3299C60.1799 72.6268 59.4929 74.8753 58.6039 77.0471C57.67 79.4065 57.3585 80.1408 56.162 82.7772C57.9907 80.822 59.6876 78.6351 60.5861 76.0907C61.2714 74.0118 61.403 71.7913 60.968 69.6466V69.6466Z" fill="black"/>
<path d="M24.0617 70.4181C20.5322 69.6733 17.18 69.2579 14.3719 68.8573C14.2323 68.8357 14.0928 68.8119 13.9537 68.7879C14.2165 68.921 14.4796 69.0536 14.7441 69.1831C16.0517 69.8315 17.3984 70.3985 18.7765 70.8809C22.877 72.3823 27.312 72.469 31.6019 73.0557C29.2009 71.8854 26.6702 71.0001 24.0617 70.4181V70.4181Z" fill="black"/>
<path d="M51.9997 88.7047C51.0291 88.9602 50.103 89.3495 49.15 89.6589C48.2915 89.9362 47.4107 90.1379 46.5328 90.344C45.0699 90.6829 42.8106 90.556 41.1841 90.3006C37.523 89.591 34.5009 88.2638 31.6562 86.9639C30.4275 86.3972 29.2118 85.8038 28.009 85.1837C27.8931 85.1248 27.7788 85.0631 27.664 85.0022C29.0713 84.6894 29.7363 84.6525 31.1129 84.4933C32.6359 84.3104 34.1674 84.2062 35.7013 84.1814C38.2711 84.2619 40.8369 84.4585 43.4061 84.5686C45.588 84.7078 47.7662 84.9469 49.9555 84.9259C51.1471 84.9131 52.3386 84.8887 53.5299 84.8527C53.4716 84.8403 53.4132 84.8277 53.3548 84.8152C50.6396 84.2524 47.917 83.7274 45.2079 83.1349C41.8196 82.505 38.3753 82.2232 34.9291 82.2938C33.4215 82.3727 31.9212 82.5474 30.4238 82.7352C28.7937 82.9314 27.1592 83.1587 25.5936 83.67C24.7322 83.8993 24.1513 84.7425 24.8532 85.4984C25.075 85.6936 25.3123 85.8707 25.5626 86.0281L25.5334 85.999C27.7551 87.4314 30.2039 88.4929 32.6026 89.5954C35.6749 90.951 38.8602 92.1664 42.2216 92.535C43.8633 92.6892 45.561 92.7533 47.1503 92.2428C48.0911 91.9602 49.009 91.6067 49.896 91.1854C50.7707 90.7589 51.601 90.2474 52.4866 89.8421C53.9451 89.156 56.2175 88.4533 58.2086 87.9515C56.1162 87.9558 54.0319 88.2086 51.9997 88.7047V88.7047Z" fill="black"/>
<path d="M47.6753 85.7347C46.7882 85.8793 44.158 86.0979 42.2333 86.2732C42.0898 86.2854 41.946 86.296 41.8025 86.3065C42.0905 86.3839 42.3789 86.4594 42.6679 86.5332C43.9092 86.866 45.1845 87.0567 46.4691 87.1016C47.9768 87.1456 49.4608 86.8195 50.9613 86.7492C52.227 86.7307 53.4861 86.9034 54.745 87.0107C52.2428 85.7931 50.4695 85.3362 47.6753 85.7347Z" fill="black"/>
<path d="M35.5378 16.4387C34.4829 16.4647 34.4857 18.0039 35.5378 18.0328C36.5927 18.0068 36.59 16.4676 35.5378 16.4387Z" fill="black"/>
<path d="M18.5346 21.7698C17.4798 21.7959 17.4825 23.335 18.5347 23.3639C19.5896 23.3379 19.5868 21.7987 18.5346 21.7698Z" fill="black"/>
<path d="M15.7009 34.3136C14.646 34.3397 14.6488 35.8789 15.7009 35.9077C16.7558 35.8817 16.7531 34.3425 15.7009 34.3136Z" fill="black"/>
<path d="M72.063 84.8025C71.0081 84.8285 71.0108 86.3677 72.063 86.3966C73.1179 86.3706 73.1152 84.8314 72.063 84.8025Z" fill="black"/>
<path d="M66.3319 117.617C66.1842 116.258 65.5516 115.01 64.8432 113.86C64.2131 112.834 63.5194 111.849 62.7663 110.91C62.0997 110.136 61.4668 109.294 60.6523 108.671C60.5255 108.599 60.3821 108.561 60.2362 108.562C60.0904 108.562 59.9471 108.6 59.8206 108.673C59.6941 108.745 59.5888 108.849 59.5149 108.974C59.441 109.099 59.4011 109.241 59.3993 109.387C59.4198 109.607 59.4884 109.821 59.6004 110.012C59.6433 110.124 59.7482 110.324 59.9375 110.885C60.1088 111.385 60.2429 111.897 60.3387 112.417C60.378 112.652 60.3827 112.691 60.349 112.44L60.3835 112.696C60.5754 114.688 60.3696 115.817 59.595 117.812C59.1283 118.948 58.9244 119.674 58.0411 120.816C57.3788 121.671 56.6102 122.44 55.7536 123.103C55.3651 123.384 54.6159 123.899 53.9718 124.341C54.4869 122.403 54.9022 120.436 54.7384 118.433C54.6733 117.839 54.5314 117.255 54.3164 116.697C56.3977 113.315 57.5958 110.286 57.026 106.164C57.0017 105.984 56.9716 105.804 56.9397 105.625C56.9037 105.946 56.8689 106.218 56.8289 106.493C56.3829 109.929 55.3272 113.232 54.241 116.511C53.5588 114.901 52.2933 113.742 50.7436 112.893C50.8294 112.876 50.9152 112.86 51.0003 112.844C50.8797 112.841 50.7593 112.839 50.6391 112.837C50.0502 112.525 49.4401 112.255 48.8131 112.029C48.1674 110.551 47.3877 109.134 46.4836 107.797C44.6562 105.088 42.5462 102.522 39.9065 100.559C38.5501 99.4802 31.7665 94.8921 31.0689 98.0314C30.9939 98.6878 31.3623 99.3058 31.5345 99.925C31.9856 101.187 32.3589 102.075 32.6962 102.84C33.2977 104.171 33.8582 105.53 34.6194 106.78C35.9221 108.838 37.4598 110.801 39.4281 112.268C42.2994 114.277 45.8852 113.81 49.203 113.188C49.2291 113.229 49.2552 113.271 49.2797 113.31C49.3097 113.358 49.3396 113.406 49.3693 113.454C49.3373 113.361 49.3019 113.269 49.2684 113.176C49.4703 113.138 49.6711 113.1 49.8708 113.061C50.5986 113.587 51.2571 114.202 51.8307 114.892C53.4329 116.929 53.2766 119.298 53.0047 120.686C52.5779 123.166 51.759 125.564 51.3874 128.054C51.3812 128.089 51.3765 128.125 51.3706 128.161C50.8254 126.723 49.954 125.344 48.9806 124.006C47.3331 121.712 43.9696 118.277 40.9195 118.518C39.4727 118.611 37.9898 119.421 38.2776 121.075C38.4539 122.352 39.0002 123.549 39.5101 124.723C40.761 127.487 43.0467 129.873 46.0363 130.698C47.7465 131.257 49.5416 131.034 51.2791 130.698C51.3822 131.901 51.764 133.064 52.3946 134.095C53.3793 135.575 54.9932 136.403 56.4777 137.298C55.4148 136.254 54.252 135.344 53.6084 134.262C53.0253 133.441 52.8255 132.506 52.6766 131.47C52.5331 130.246 52.728 128.901 53.2592 126.94C53.4755 126.126 53.7123 125.307 53.9336 124.482C55.9009 123.599 57.8132 122.582 59.2456 120.926C59.8192 120.257 60.301 119.516 60.6782 118.721C61.0808 117.985 61.4155 117.214 61.6783 116.418C62.0321 115.29 62.1623 114.103 62.0615 112.925C62.7401 113.894 63.3469 114.91 63.8771 115.966C63.9143 116.043 63.9488 116.116 63.971 116.163C64.0164 116.28 64.0619 116.397 64.1074 116.514C64.237 116.893 64.3365 117.282 64.4047 117.676C64.4055 117.684 64.4068 117.693 64.4075 117.701C64.4364 118.807 64.4622 118.613 64.1315 119.68C63.9865 120.142 63.7999 120.59 63.5737 121.018C63.1956 121.72 62.7569 122.388 62.2627 123.014C61.778 123.683 60.552 125.044 59.5068 126.17C58.0341 127.758 56.5453 129.62 54.9227 130.667C54.306 131.106 53.5977 131.4 52.8507 131.527C54.1334 131.778 56.2464 130.792 57.5128 129.862C58.8035 128.929 60.0061 127.882 61.2062 126.838C62.7926 125.444 64.3226 123.9 65.2904 122.005C65.9389 120.645 66.5422 119.151 66.3319 117.617ZM40.711 111.152C38.2897 109.114 36.3418 106.576 35.0019 103.714C34.0684 101.704 33.5231 100.568 32.8733 98.6337C33.5651 98.7491 34.6354 99.2327 35.6303 99.7897C38.3877 101.38 39.9593 102.787 42.2722 105.04C44.1085 106.854 45.8459 108.765 47.4769 110.764C47.6543 110.99 47.9593 111.394 48.2862 111.848C48.1293 111.796 47.9723 111.744 47.8144 111.696C48.0311 111.823 48.2453 111.954 48.458 112.088C48.6314 112.332 48.8056 112.584 48.9661 112.824C45.8895 112.813 43.006 112.771 40.711 111.152ZM49.1396 112.825C49.0877 112.69 49.0331 112.557 48.9782 112.424C49.1683 112.551 49.3617 112.686 49.5548 112.827C49.416 112.826 49.2776 112.825 49.1396 112.825V112.825ZM47.8495 130.076C46.5689 129.741 44.8974 128.723 44.176 128.03C42.6757 126.703 41.909 125.355 40.8926 123.252C40.6249 122.669 40.3928 122.071 40.1976 121.46C40.007 120.787 40.0414 121.012 40.0345 120.612C40.0656 120.587 40.0853 120.571 40.0967 120.561C40.599 120.241 41.2898 120.316 41.5109 120.316C42.613 120.533 43.8212 121.292 45.1583 122.275C46.2146 122.998 49.6522 126.232 50.9936 128.348C51.0932 128.501 51.1871 128.658 51.2831 128.813C51.2277 129.368 51.2201 129.926 51.2606 130.482C49.9877 130.421 49.0153 130.377 47.8495 130.076L47.8495 130.076Z" fill="black"/>
<path d="M44.2347 110.257C42.578 108.942 40.8963 107.077 39.7655 105.59C39.407 105.106 39.0672 104.609 38.7379 104.105C38.799 104.295 38.8612 104.485 38.9248 104.675C39.5582 106.773 40.7503 108.66 42.3744 110.137C43.9293 111.428 45.8579 112.136 47.7893 112.656C46.725 111.988 44.8138 110.743 44.2347 110.257Z" fill="black"/>
<path d="M56.4209 96.7812C54.5602 95.1228 52.3381 93.6365 49.8205 93.2778C48.9271 93.1531 48.0191 93.3645 47.2738 93.8707C46.5322 94.4196 46.6212 95.4957 47.0243 96.2275C48.0774 98.2173 49.3691 100.072 50.871 101.752C52.4264 103.421 54.3573 104.673 56.277 105.892C56.3444 106.297 56.4157 106.7 56.4777 107.012C56.5123 106.707 56.5429 106.393 56.5652 106.075C56.662 106.137 56.7588 106.198 56.8555 106.26C56.7614 106.167 56.6664 106.076 56.572 105.984C56.673 104.414 56.5369 102.762 55.4281 101.575C55.3298 101.445 55.4677 101.697 55.4708 101.724C55.8934 102.746 55.9317 103.403 56.0427 104.338C56.0753 104.609 56.1513 105.121 56.2387 105.659C54.786 104.253 53.3116 102.861 52.0622 101.269C51.2042 100.21 48.8877 96.2862 48.37 95.2516C48.346 95.188 48.3236 95.1237 48.303 95.0589C48.3705 95.0222 48.4445 94.9863 48.5018 94.9595C49.1044 94.7557 48.9136 94.8237 49.3419 94.7971C49.6683 94.8027 49.9918 94.8582 50.3012 94.9617C52.6866 95.597 55.6849 97.9318 57.0889 99.6049C58.4256 101.286 58.6502 103.2 58.5056 105.194C58.3841 105.984 58.1585 106.754 57.8346 107.486C57.7942 107.548 57.7733 107.638 57.8535 107.494C58.2611 106.903 58.5992 106.267 58.861 105.599C59.1057 104.854 59.2519 104.081 59.2959 103.299C59.5469 100.62 58.3647 98.5386 56.4209 96.7812Z" fill="black"/>
<path d="M53.6445 127.893C54.9942 127.255 56.3455 126.583 57.5203 125.654C58.9169 124.527 60.0705 123.12 61.0723 121.641C58.4966 123.605 56.0983 125.783 53.6445 127.893Z" fill="black"/>
<path d="M47.7599 127.446C46.5767 126.764 45.3234 126.209 44.1437 125.519C45.9219 127.536 48.3654 128.748 50.8114 129.774C49.8591 128.917 48.8386 128.138 47.7599 127.446V127.446Z" fill="black"/>
<path d="M19.3261 157.863C16.7445 157.444 14.1338 157.218 11.525 157.05C17.3114 158.884 21.801 160.118 27.5596 159.779C25.1682 159.034 22.0195 158.362 19.3261 157.863Z" fill="black"/>
<path d="M30.9972 152.762C30.7947 152.278 30.6824 152.024 30.5078 151.606C30.3969 151.344 30.2884 151.081 30.1823 150.817C30.1852 150.844 30.1877 150.871 30.1904 150.899C30.3293 152.438 30.6259 153.96 31.0756 155.439C31.551 156.872 32.2877 158.201 33.057 159.495C32.5933 157.189 31.9034 154.934 30.9972 152.762V152.762Z" fill="black"/>
<path d="M38.5316 154.477C38.3567 153.298 38.105 152.132 37.8334 150.971C37.7561 150.639 37.6796 150.307 37.6038 149.975C37.6015 150.01 37.5991 150.046 37.5968 150.082C37.4787 151.975 37.425 153.886 37.6867 155.77C37.9471 157.421 38.3573 159.046 38.9123 160.624C38.9101 158.569 38.783 156.516 38.5316 154.477Z" fill="black"/>
<path d="M47.4595 155.309C47.3314 154.905 47.2066 154.499 47.0906 154.091C47.089 154.144 47.0873 154.196 47.0859 154.248C47.0517 155.48 47.1813 156.71 47.4713 157.908C47.7894 158.977 48.2122 160.013 48.7338 161C48.5023 159.065 48.0753 157.159 47.4595 155.309V155.309Z" fill="black"/>
<path d="M71.5879 159.119C72.0109 158.033 72.3544 156.918 72.6157 155.783C72.829 154.714 73.0318 153.305 73.1642 152.39C72.033 154.449 71.6219 156.792 71.5879 159.119Z" fill="black"/>
<path d="M83.9063 145.749C82.1691 147.09 80.9696 148.985 80.035 150.94C78.4944 154.018 77.7971 157.412 77.443 160.812C77.9666 159.454 78.4186 158.069 78.9589 156.718C79.6291 154.969 80.1687 153.881 80.9192 152.037C81.4956 150.749 82.3936 148.012 83.7805 146.174C84.0127 145.869 84.2642 145.58 84.5333 145.307C84.3192 145.447 84.1084 145.592 83.9063 145.749Z" fill="black"/>
<path d="M95.4219 138.828C93.8637 137.754 92.6434 138.968 91.5566 140.049C90.0842 141.5 88.7165 143.053 87.4638 144.697C85.2647 147.526 83.4187 150.639 82.2263 154.024C81.3583 156.251 80.9619 158.621 80.8428 161C81.1892 159.651 81.6183 158.324 82.1275 157.027C83.0951 154.836 84.2372 152.725 85.5429 150.716C87.7877 147.182 89.5563 144.739 92.468 141.737C92.9262 141.282 93.3774 140.818 93.8786 140.409L93.8836 140.405C93.9744 140.347 94.0673 140.292 94.1626 140.241C94.1699 140.241 94.1772 140.241 94.1846 140.242C94.2247 140.252 94.262 140.263 94.2913 140.272C94.3849 140.327 94.4757 140.387 94.5633 140.452C94.579 140.464 94.5949 140.477 94.61 140.49C94.6131 140.502 94.6169 140.514 94.6196 140.527C94.6355 141.692 94.0681 142.749 93.1679 144.318C90.1883 149.392 87.1901 152.772 84.0736 156.999C83.3741 157.956 82.6783 158.915 81.9609 159.859C83.2138 158.956 85.1486 157.063 86.5663 155.745C89.0579 153.412 91.3399 150.839 93.1749 147.958C94.3461 145.964 98.3418 140.549 95.4219 138.828Z" fill="black"/>
<path d="M104.71 158.059C103.2 157.451 101.593 156.943 99.9468 156.988C96.3697 157.146 93.0256 158.625 89.72 159.871C92.1405 159.51 94.553 159.094 96.9504 158.602C98.2472 158.385 99.5863 158.115 100.496 158.043C101.75 157.961 103.009 158.002 104.256 158.165C104.63 158.213 104.931 158.257 105.328 158.325C105.124 158.233 104.918 158.145 104.71 158.059Z" fill="black"/>
<path d="M122.539 155.916C120.105 155.409 117.66 154.865 115.171 154.733C112.772 154.708 110.396 155.135 108.041 155.545C110.118 155.762 112.204 155.841 114.29 155.92C116.412 156.05 118.538 156.104 120.664 156.025C121.346 156.004 122.028 155.978 122.71 155.952C122.653 155.94 122.596 155.928 122.539 155.916Z" fill="black"/>
<path d="M152.108 133.851C151.619 131.953 150.555 128.37 148.264 128.139C146.986 128.112 146.715 129.17 146.991 130.223C147.071 130.559 147.137 132.014 147.113 133.151C147.064 135.079 147.06 135.513 146.605 137.3C146.091 139.102 145.767 139.73 144.646 141.469C144.021 142.452 143.318 143.383 142.542 144.253C142.741 143.723 142.923 143.187 143.084 142.643C143.78 139.99 144.238 137.815 143.85 134.673C143.662 133.03 143.246 131.366 142.24 130.02C141.422 128.937 140.35 127.966 139.071 127.47C138.002 127.131 136.7 127.232 135.849 128.013C135.121 128.68 134.941 129.679 134.829 130.613C134.744 131.228 134.665 131.843 134.587 132.458C134.383 134.079 134.096 136.438 133.946 137.457C133.922 137.608 133.964 137.342 133.97 137.28C133.569 140.037 133.063 142.78 132.473 145.504C132.211 144.092 131.886 142.691 131.515 141.302C130.68 138.427 129.629 135.131 126.911 132.685C125.498 131.338 123.329 129.897 121.378 130.994C120.274 131.746 119.655 132.735 119.75 134.401C120.028 136.922 121.251 139.227 122.501 141.395C124.224 144.328 126.177 147.118 128.038 149.963C129.175 151.643 129.906 153.534 130.419 155.482C128.116 155.082 126.066 154.828 123.529 154.604C126.168 155.734 128.179 156.186 130.598 156.197C130.635 156.356 130.671 156.515 130.706 156.673C130.706 156.515 130.705 156.357 130.702 156.199C130.748 156.199 130.794 156.198 130.84 156.197C130.779 156.347 130.745 156.506 130.738 156.667C130.728 157.784 131.654 158.198 132.59 157.786C134.068 157.697 135.537 157.501 136.986 157.198C141.398 156.26 145.956 153.324 148.653 149.724C151.902 145.211 153.464 139.312 152.108 133.851ZM134.702 144.16C135.393 140.662 135.886 137.127 136.18 133.574C136.513 130.308 136.361 129.115 137.449 128.894C138.571 128.821 138.828 129.084 139.623 129.714C140.459 130.503 140.545 130.557 141.023 131.349C142.302 133.607 142.319 137.319 141.642 140.11C140.843 143.865 139.263 146.932 137.151 149.8C135.833 151.021 134.529 152.175 133.17 153.492C133.236 152.74 133.239 151.984 133.177 151.231C133.599 149.172 134.274 146.428 134.702 144.16V144.16ZM130.683 155.528C130.64 153.753 130.306 151.996 129.693 150.328C128.53 147.462 126.957 144.776 125.324 142.154C124.33 140.62 123.434 139.025 122.641 137.378L122.632 137.358C121.391 134.391 121.163 133.334 122.19 132.486C122.921 131.932 124.189 132.481 125.469 133.644C127.944 135.883 128.687 138.269 129.664 141.755C130.539 145.317 130.996 147.898 131.124 151.414C130.989 152.063 130.867 152.714 130.771 153.369C130.706 153.959 130.524 154.597 130.834 155.147C130.935 155.316 131.079 155.456 131.251 155.552C131.284 155.51 131.278 155.517 131.251 155.552L131.252 155.552C131.234 155.575 131.216 155.597 131.199 155.62L131.198 155.621L131.199 155.62C131.22 155.593 131.238 155.569 131.251 155.552L131.251 155.552L131.198 155.621C131.025 155.589 130.852 155.558 130.683 155.528ZM149.863 142.125C149.213 144.611 147.73 147.453 146.518 148.904C145.159 150.498 143.394 151.893 142.316 152.682C141.03 153.624 139.729 154.553 138.306 155.281C136.604 156.161 135.112 156.711 133.165 157.391C134.52 156.337 135.614 154.971 136.748 153.692C137.549 152.772 138.307 151.809 139.013 150.811C140.158 149.747 141.278 148.657 142.348 147.517C144.201 145.634 145.923 143.613 147.261 141.329C148.817 138.689 149.386 135.591 149.265 132.556C149.258 132.214 149.247 131.87 149.227 131.528C149.454 132.062 149.647 132.61 149.807 133.167C150.332 135.162 150.427 135.79 150.454 137.779C150.419 139.72 150.347 140.219 149.863 142.125Z" fill="black"/>
<path d="M108.803 117.513C108.803 117.516 108.804 117.518 108.804 117.521L108.804 117.518L108.803 117.513Z" fill="black"/>
<path d="M114.464 123.55C114.444 123.442 114.395 123.342 114.322 123.259C114.331 123.271 114.347 123.289 114.355 123.3C114.312 123.214 114.273 123.125 114.238 123.034C114.25 123.008 114.261 122.982 114.27 122.955C114.308 122.803 114.292 122.643 114.227 122.501C114.209 122.452 114.187 122.406 114.162 122.361C114.098 122.217 114.014 122.082 113.914 121.961C113.902 121.935 113.888 121.91 113.874 121.885C113.471 121.234 112.856 120.764 112.238 120.312C111.984 119.896 111.67 119.519 111.308 119.192C110.944 118.828 110.576 118.467 110.199 118.116C110.173 117.857 110.133 117.6 110.08 117.346C110.072 117.275 110.052 117.206 110.018 117.143C110.016 117.131 110.012 117.118 110.01 117.106L110.01 117.101C109.965 116.613 109.928 116.125 109.918 115.635C109.925 115.448 109.918 115.26 109.896 115.074C109.883 115.031 109.865 114.99 109.841 114.952C109.834 114.931 109.827 114.907 109.822 114.888C109.8 114.795 109.793 114.698 109.803 114.602C109.823 114.427 109.839 114.096 109.856 113.962C109.884 113.889 109.888 113.809 109.865 113.734C109.873 113.541 109.888 113.261 109.686 113.213L109.684 113.212C109.675 113.082 109.667 112.952 109.657 112.822C109.932 112.946 110.242 112.968 110.532 112.883C110.821 112.798 111.07 112.613 111.234 112.361C111.4 112.107 111.471 111.803 111.434 111.503C111.397 111.202 111.254 110.924 111.03 110.719C111.026 110.702 111.02 110.686 111.014 110.67C111.023 110.451 110.945 110.237 110.798 110.074C110.777 109.944 110.719 109.823 110.632 109.724C110.545 109.625 110.431 109.553 110.305 109.516C110.18 109.477 110.048 109.47 109.92 109.497C109.793 109.524 109.674 109.584 109.577 109.67C109.442 109.725 109.323 109.813 109.231 109.926C109.015 110.023 108.83 110.18 108.7 110.378C108.57 110.577 108.5 110.808 108.498 111.045C108.456 111.248 108.478 111.458 108.562 111.648C108.645 111.838 108.786 111.997 108.964 112.104C109.01 112.16 109.06 112.213 109.115 112.261C109.183 112.396 109.271 112.52 109.375 112.629C109.458 112.708 109.552 112.772 109.654 112.821C109.638 112.946 109.613 113.072 109.588 113.199C109.566 113.201 109.544 113.209 109.524 113.221C109.488 113.237 109.457 113.26 109.431 113.29C109.406 113.32 109.389 113.355 109.38 113.393C109.38 113.391 109.38 113.391 109.38 113.389C109.379 113.394 109.378 113.399 109.377 113.404C109.372 113.422 109.368 113.44 109.365 113.458C109.361 113.474 109.358 113.491 109.354 113.508C109.336 113.576 109.322 113.646 109.312 113.716C109.105 114.01 109.012 114.592 108.983 114.828C108.975 114.96 108.984 115.092 109.009 115.221C108.995 115.289 108.981 115.357 108.968 115.426C108.945 115.552 108.929 115.679 108.909 115.806C108.873 115.774 108.835 115.746 108.795 115.719C108.827 115.768 108.862 115.814 108.901 115.857C108.853 116.185 108.811 116.515 108.779 116.846C108.749 117.068 108.757 117.293 108.803 117.513C108.8 117.488 108.8 117.464 108.802 117.439C108.803 117.465 108.803 117.492 108.804 117.518C108.814 117.557 108.826 117.595 108.84 117.632C108.821 117.598 108.809 117.56 108.804 117.521C108.814 117.785 108.818 118.05 108.805 118.314C108.785 118.421 108.789 118.53 108.818 118.635C108.973 118.996 109.547 119.685 110.206 120.557C110.209 120.619 110.217 120.68 110.232 120.741C110.315 120.981 110.478 121.187 110.694 121.324C110.786 121.43 110.897 121.519 111.02 121.588C111.494 121.966 111.935 122.385 112.418 122.751C112.327 122.68 112.246 122.621 112.402 122.747C112.458 122.792 112.511 122.842 112.558 122.896L112.565 122.887C112.699 123.021 112.872 123.109 113.06 123.137C113.069 123.149 113.078 123.16 113.086 123.172C113.23 123.37 113.385 123.524 113.53 123.735C113.557 123.771 113.584 123.806 113.612 123.841C113.698 124.091 113.761 124.349 113.799 124.612C113.798 124.666 113.797 124.721 113.793 124.776C113.716 125.038 113.68 125.311 113.686 125.584C113.68 125.588 113.674 125.592 113.669 125.597C113.635 125.645 113.615 125.702 113.613 125.761C113.61 125.819 113.625 125.878 113.655 125.929C113.681 126.121 113.71 126.349 113.741 126.579C113.715 126.592 113.692 126.608 113.671 126.628C113.682 126.62 113.694 126.614 113.707 126.612C113.72 126.61 113.733 126.611 113.746 126.615C113.751 126.656 113.757 126.696 113.762 126.736C113.764 126.759 113.771 126.788 113.799 126.788C113.831 126.787 113.838 126.751 113.835 126.725L113.835 126.724C113.858 126.675 113.838 126.56 113.859 126.512C113.88 126.329 113.9 126.147 113.917 125.964C113.957 125.933 113.985 125.89 113.996 125.841C114.134 125.574 114.256 125.104 114.328 124.988C114.38 124.846 114.415 124.7 114.434 124.55C114.517 124.223 114.528 123.882 114.464 123.55Z" fill="black"/>
<path d="M98.2219 99.1677C97.5165 100.828 96.5875 102.384 95.7066 103.956C94.4291 106.178 93.0364 108.332 91.7192 110.531C90.1032 113.298 88.2916 115.946 86.2981 118.456C83.9845 121.416 81.0867 123.84 78.4858 126.536C75.0671 130.002 71.8603 133.725 69.3117 137.879C68.29 139.522 67.4915 141.293 66.9371 143.146C66.3206 145.5 65.9963 147.921 65.9714 150.354C66.0102 153.36 66.5204 156.337 66.949 159.306C67.1024 155.578 67.0412 150.859 67.5375 148.309C67.8804 146.217 68.1998 144.1 68.9622 142.11C70.5494 138.213 73.625 134.184 76.7964 130.652C79.0045 131.72 81.3821 132.338 83.6847 133.161C84.556 133.553 85.3045 133.66 85.8647 132.737C86.3288 131.868 86.5753 130.904 86.8067 129.953C86.9926 129.147 87.1596 128.337 87.3156 127.525C87.4092 127.022 87.5943 126.402 87.1339 126.02C86.4998 125.518 85.6332 125.531 84.868 125.4C83.9821 125.277 83.0926 125.173 82.2001 125.12C83.5352 123.824 84.8657 122.524 86.1188 121.148C89.4495 117.267 92.3212 113.018 94.6773 108.483C95.6532 106.661 96.5128 104.78 97.2508 102.85C97.7575 101.506 98.257 100.15 98.5049 98.7304C98.5389 98.5541 98.5728 98.3777 98.6064 98.2014C98.4774 98.5231 98.352 98.8463 98.2219 99.1677ZM84.7492 126.482C85.3014 126.667 85.7244 126.772 85.9784 126.885C85.8174 127.484 85.6371 128.079 85.4696 128.676C85.138 129.724 84.8877 130.801 84.4915 131.827C84.4472 131.818 84.4059 131.809 84.3747 131.802C82.6127 131.426 80.6174 131.264 79.1029 131.053C78.7035 130.992 77.5635 130.763 76.8275 130.618C77.2143 130.188 77.6021 129.763 77.9891 129.349C79.2131 128.023 80.5058 126.765 81.8006 125.508C82.7894 125.815 83.7625 126.169 84.7492 126.482Z" fill="black"/>
<path d="M78.5407 105.037C77.6074 101.223 75.6715 97.719 73.2881 94.6155C72.2642 93.2844 71.2524 91.9336 70.0586 90.7462C68.757 89.4756 67.3768 88.2873 65.9261 87.1883C65.467 86.842 64.9969 86.5103 64.5201 86.1886C64.6391 86.3267 64.7577 86.4652 64.8758 86.6043C66.4897 88.5234 67.7276 90.1304 69.2339 92.2063C69.9861 93.3014 70.668 94.4425 71.4069 95.5466C72.3432 96.9611 73.3081 98.3587 74.1763 99.8164C75.1984 101.539 76.082 103.34 76.819 105.202C77.6707 107.421 78.1174 109.238 78.0839 111.422C78.0733 112.574 77.8387 113.571 77.6119 114.797C78.0475 113.755 78.5157 112.715 78.7473 111.604C79.2237 109.442 79.0631 107.177 78.5407 105.037Z" fill="black"/>
<path d="M96.3878 79.7718C95.7444 78.1253 94.8632 76.5811 93.7722 75.188C93.3309 74.6138 92.86 74.0626 92.3615 73.5369C92.5588 73.9588 92.7483 74.3842 92.93 74.8131C93.0626 75.1185 93.4877 76.1412 93.7196 76.814C94.4572 78.7203 95.04 80.9577 95.1699 82.3145C95.1591 82.2341 95.1483 82.1537 95.1374 82.0733C95.2927 83.3904 95.3891 83.5693 95.4413 85.4595C95.3378 88.0653 94.8672 90.6424 94.704 93.2454C95.2094 91.8998 95.6827 90.5425 96.1494 89.1832C96.5554 88.0948 96.8574 86.9707 97.0516 85.8259C97.3495 83.8001 97.0411 81.7022 96.3878 79.7718Z" fill="black"/>
<path d="M119.471 145.616C117.359 145.177 115.206 144.964 113.049 144.979C110.525 145.045 108.021 145.448 105.551 145.948C109.291 146.254 113.054 146.389 116.795 146.019C117.799 145.933 118.801 145.821 119.801 145.683C119.691 145.66 119.581 145.638 119.471 145.616Z" fill="black"/>
<path d="M60.6727 155.437C58.495 141.874 66.7625 127.351 79.2807 121.171C70.0267 130.682 63.962 143.22 60.6727 155.437Z" fill="#A0FFF0"/>
</g>
<defs>
<clipPath id="clip0_58_144">
<rect width="201" height="161" fill="white"/>
</clipPath>
</defs>
</svg>
