<svg width="36" height="34" viewBox="0 0 36 34" fill="none" xmlns="http://www.w3.org/2000/svg">
<g clip-path="url(#clip0_51_42)">
<path d="M35.852 22.3171C35.6134 19.7507 35.3749 17.1842 35.1364 14.6178C34.8718 11.7712 34.4633 8.63377 32.2748 6.74426C30.5094 5.21997 27.9237 4.89276 25.6153 5.33886C23.3068 5.78496 21.2013 6.90603 19.1368 8.01215L16.8953 7.91615C16.1235 6.11778 14.1978 4.85629 12.207 4.84502C10.2162 4.83374 8.27573 6.0733 7.48275 7.86286C6.84353 9.30535 6.92929 10.9434 7.02652 12.5132C7.1904 15.1589 7.35427 17.8046 7.51815 20.4502C7.74925 24.1813 8.12102 28.2449 10.7455 30.9574C12.6386 32.9139 15.4455 33.8209 18.1924 33.9732C20.9394 34.1256 23.6732 33.5998 26.3723 33.0766C29.8362 32.4051 33.7768 31.3886 35.3109 28.2719C36.2059 26.4535 36.0388 24.3276 35.852 22.3171Z" fill="#7C77B9"/>
<path d="M20.2432 24.3915C16.1401 18.1568 11.0493 12.324 5.68274 7.20157C9.93086 12.8677 16.0618 20.2039 20.2432 24.3915Z" fill="black"/>
<path d="M4.71106 23.2623C10.7872 18.8371 16.3888 13.4726 21.2487 7.88565C15.761 12.415 8.69773 18.8961 4.71106 23.2623Z" fill="black"/>
<path d="M0 30.9305C7.24717 31.8036 14.4627 30.1993 21.5 28.7194C24.2518 27.9393 32.0913 30.667 30.719 25.6279C28.5445 17.6146 26.9583 9.45902 25.9725 1.22368C25.5418 -1.23071 20.9347 0.830531 19.0511 0.452748C12.7911 0.871297 6.60776 1.30135 0.329604 1.73349C8.29636 1.50313 16.953 1.13343 25.0784 0.856365C25.9713 9.40839 27.47 17.9755 29.8868 26.2421C30.4734 28.9801 25.0256 27.4332 23.3391 27.7799C15.7981 28.8516 7.38952 31.7303 0 30.9305Z" fill="black"/>
</g>
<defs>
<clipPath id="clip0_51_42">
<rect width="36" height="34" fill="white"/>
</clipPath>
</defs>
</svg>
