<svg width="36" height="35" viewBox="0 0 36 35" fill="none" xmlns="http://www.w3.org/2000/svg">
<path d="M35.852 22.3172C35.6134 19.7507 35.3749 17.1843 35.1364 14.6178C34.8718 11.7713 34.4633 8.63383 32.2748 6.74432C30.5094 5.22003 27.9237 4.89282 25.6153 5.33892C23.3068 5.78502 21.2013 6.90609 19.1368 8.01222L16.8953 7.91621C16.1235 6.11784 14.1978 4.85635 12.207 4.84508C10.2162 4.8338 8.27573 6.07336 7.48275 7.86292C6.84353 9.30541 6.92929 10.9435 7.02652 12.5132C7.1904 15.1589 7.35427 17.8046 7.51815 20.4503C7.74925 24.1814 8.12102 28.245 10.7455 30.9575C12.6386 32.914 15.4455 33.821 18.1924 33.9733C20.9394 34.1257 23.6732 33.5999 26.3723 33.0766C29.8362 32.4052 33.7768 31.3887 35.3109 28.2719C36.2059 26.4536 36.0388 24.3277 35.852 22.3172Z" fill="#7C77B9"/>
<path d="M-4.99425e-07 11.6303C7.49054 12.258 15.2366 11.8648 22.5672 10.8182C15.4536 10.6542 5.87153 10.9358 -4.99425e-07 11.6303Z" fill="black"/>
<path d="M-4.99425e-07 17.6303C7.49054 18.258 15.2366 17.8648 22.5672 16.8182C15.4536 16.6542 5.87153 16.9358 -4.99425e-07 17.6303Z" fill="black"/>
<path d="M-4.99425e-07 23.6303C7.49054 24.258 15.2366 23.8648 22.5672 22.8182C15.4536 22.6542 5.87153 22.9358 -4.99425e-07 23.6303Z" fill="black"/>
<path d="M0 30.9306C7.24717 31.8036 14.4627 30.1994 21.5 28.7194C24.2518 27.9394 32.0913 30.6671 30.719 25.628C28.5445 17.6147 26.9583 9.45908 25.9725 1.22374C25.5418 -1.23065 20.9347 0.830592 19.0511 0.452809C12.7911 0.871358 6.60776 1.30141 0.329604 1.73355C8.29636 1.5032 16.953 1.13349 25.0784 0.856426C25.9713 9.40845 27.47 17.9756 29.8868 26.2422C30.4734 28.9802 25.0256 27.4332 23.3391 27.7799C15.7981 28.8517 7.38952 31.7303 0 30.9306Z" fill="black"/>
</svg>
